<?xml version="1.0" encoding="utf-8"?>
<!-- Generator: Adobe Illustrator 19.1.0, SVG Export Plug-In . SVG Version: 6.00 Build 0)  -->
<svg version="1.1" id="图层_1" xmlns="http://www.w3.org/2000/svg" xmlns:xlink="http://www.w3.org/1999/xlink" x="0px" y="0px"
	 viewBox="0 0 64 64" style="enable-background:new 0 0 64 64;" xml:space="preserve">
<style type="text/css">
	.st0{fill:#686868;}
</style>
<g>
	<path class="st0" d="M32,0C14.4,0,0,14.4,0,32s14.4,32,32,32c17.6,0,32-14.4,32-32S49.6,0,32,0z M52.6,38.7l-0.2,0.9H13.5l-0.3-0.7
		c-0.4-1-0.6-2-0.6-3c0-4.5,3.6-8.1,8.1-8.1c0,0,0.1,0,0.1,0c1.5-5.5,6.6-9.4,12.3-9.4c6.8,0,12.3,5.3,12.8,11.9
		c3.8,0,6.9,3.1,6.9,6.9C52.8,37.6,52.7,38.1,52.6,38.7z"/>
</g>
<g>
	<path class="st0" d="M45.2,32.2c-0.3,0-0.6,0-0.9,0.1L43,32.6l0-1.4c0-0.1,0-0.1,0-0.2c0-5.5-4.5-9.9-9.9-9.9
		c-4.8,0-8.9,3.4-9.8,8.1l-0.2,1l-1-0.1c-0.3,0-0.5-0.1-0.8-0.1c-3,0-5.5,2.5-5.5,5.5c0,0.5,0.1,0.9,0.2,1.4h33.5c0-0.1,0-0.1,0-0.2
		C49.5,34.2,47.6,32.2,45.2,32.2z"/>
</g>
</svg>
