<?xml version="1.0" encoding="utf-8"?>
<!-- Generator: Adobe Illustrator 19.1.0, SVG Export Plug-In . SVG Version: 6.00 Build 0)  -->
<svg version="1.1" id="图层_1" xmlns="http://www.w3.org/2000/svg" xmlns:xlink="http://www.w3.org/1999/xlink" x="0px" y="0px"
	 viewBox="0 0 64 64" style="enable-background:new 0 0 64 64;" xml:space="preserve">
<style type="text/css">
	.st0{fill:#686868;}
	.st1{fill:#FAFAFA;}
	.st2{fill:#FFFFFF;}
</style>
<g>
	<path class="st0" d="M32,0C14.4,0,0,14.4,0,32c0,17.6,14.4,32,32,32s32-14.4,32-32C64,14.4,49.6,0,32,0z M42.9,47.6
		c0,1.1-0.9,1.9-2,1.9h-17c-1.1,0-2-0.9-2-1.9V15.9c0-1.1,0.9-1.9,2-1.9h17c1.1,0,2,0.9,2,1.9V47.6z"/>
</g>
<g>
	<path class="st0" d="M24.1,46.5h16.7V17H24.1V46.5z M32.4,18.7c0.3,0,0.6,0.2,0.6,0.6s-0.3,0.6-0.6,0.6c-0.3,0-0.6-0.2-0.6-0.6
		S32.1,18.7,32.4,18.7z M32.4,41.3c1.3,0,2.4,1,2.4,2.2c0,1.2-1.1,2.2-2.4,2.2c-1.3,0-2.4-1-2.4-2.2C30,42.3,31.1,41.3,32.4,41.3z"
		/>
</g>
<g>
	<g>
		<rect x="25.4" y="24.6" class="st1" width="4.1" height="3.1"/>
		<rect x="30.4" y="24.6" class="st1" width="4.1" height="3.1"/>
		<rect x="35.3" y="24.6" class="st1" width="4.1" height="3.1"/>
	</g>
	<g>
		<rect x="25.4" y="28.3" class="st1" width="4.1" height="3.1"/>
		<rect x="30.4" y="28.3" class="st1" width="4.1" height="3.1"/>
		<rect x="35.3" y="28.3" class="st1" width="4.1" height="3.1"/>
	</g>
	<g>
		<rect x="25.4" y="32.1" class="st1" width="4.1" height="3.1"/>
		<rect x="30.4" y="32.1" class="st1" width="4.1" height="3.1"/>
		<rect x="35.3" y="32.1" class="st1" width="4.1" height="3.1"/>
	</g>
	<g>
		<rect x="25.4" y="35.9" class="st1" width="4.1" height="3.1"/>
		<rect x="30.4" y="35.9" class="st1" width="9.1" height="3.1"/>
	</g>
</g>
<rect x="26.1" y="18.5" class="st2" width="12.7" height="4.4"/>
</svg>
