<?xml version="1.0" encoding="utf-8"?>
<!-- Generator: Adobe Illustrator 17.0.0, SVG Export Plug-In . SVG Version: 6.00 Build 0)  -->
<!DOCTYPE svg PUBLIC "-//W3C//DTD SVG 1.1//EN" "http://www.w3.org/Graphics/SVG/1.1/DTD/svg11.dtd">
<svg version="1.1" id="图层_1" xmlns="http://www.w3.org/2000/svg" xmlns:xlink="http://www.w3.org/1999/xlink" x="0px" y="0px"
	 width="24px" height="24px" viewBox="0 0 24 24" enable-background="new 0 0 24 24" xml:space="preserve">
<path fill="none" d="M0,0h24v24H0V0z"/>
<path fill="#8173BC" d="M16.5,13c-1.2,0-3.07,0.34-4.5,1c-1.43-0.67-3.3-1-4.5-1C5.33,13,1,14.08,1,16.25V19h22v-2.75
	C23,14.08,18.67,13,16.5,13z M12.5,17.5h-10v-1.25c0-0.54,2.56-1.75,5-1.75s5,1.21,5,1.75V17.5z M21.5,17.5H14v-1.25
	c0-0.46-0.2-0.86-0.52-1.22c0.88-0.3,1.96-0.53,3.02-0.53c2.44,0,5,1.21,5,1.75V17.5z M7.5,12c1.93,0,3.5-1.57,3.5-3.5S9.43,5,7.5,5
	S4,6.57,4,8.5S5.57,12,7.5,12z M7.5,6.5c1.1,0,2,0.9,2,2s-0.9,2-2,2s-2-0.9-2-2S6.4,6.5,7.5,6.5z M16.5,12c1.93,0,3.5-1.57,3.5-3.5
	S18.43,5,16.5,5S13,6.57,13,8.5S14.57,12,16.5,12z M16.5,6.5c1.1,0,2,0.9,2,2s-0.9,2-2,2s-2-0.9-2-2S15.4,6.5,16.5,6.5z"/>
</svg>
