<svg xmlns="http://www.w3.org/2000/svg" width="141.7" height="141.7" viewBox="0 0 141.7 141.7"><path fill="#fff" d="M68.1 34.7c7.5 7.5 25.6 4.2 42.6-6.4 13.3-8.3 14-14.4 14-14.4s7.5 6.9 6.9 11.1c-.5 3.6-2.8 8.6-1 10.4 9.3 9.3 11.8 17.7 8.9 24.4-4.3 10-16.1 29.7-51.2 29.7-31.6 0-45.8-17.4-47.7-24.3-5.1-19 10.1-25.4 11.1-31.7C54 19.3 69 15.3 69 15.3s-7.4 12.9-.9 19.4zm51.8 32.4c14.4-9.9 3.9-24.3 3.9-24.3L96.6 63.4s13.6 10.4 23.3 3.7zm-46.5-4L50.2 45.6s-10.6 11.1 1.7 19.5c8.3 5.6 21.5-2 21.5-2z"/><path fill="#fff" d="M120.4 138.7c15.3 0 18.9-15.4 17.8-21.5-1-5.4-4.4-11.4-3.8-11.3 1.4.1 2.6 1.3 3.2.6.8-.9 3.9-10.6 2.8-13.5 0 0-9.7-.9-14.4 5.6-.4.5 2.4 3.1 2.7 4.1.2.5 9.7 27.6-7.1 27.6-10.1 0-13.3-10.4-13.3-10.4V83l-8.2 3.5v32.6c0 2.1-3.1 11.3-12.3 11.3-9.3 0-13.3-8.6-13.3-12V85.2l-9.3-4v38.1c0 4-.3 9.2-5.1 11.6s-5.3 4.2-4.7 6.4c.5 2.2 6.4 3.2 8.9 2.1 5.9-2.4 8.4-11.9 7.4-10 0 0 6.1 9.7 16.6 10 10.5.3 15.9-10.7 15.9-10.7s6.5 10 16.2 10z"/><g fill="#fff"><path d="M22.4 134c0 1.1 0 2-.1 2.7s-.1 1.3-.2 1.8-.2.8-.4 1c-.1.2-.3.3-.5.3H4c-.6 0-1.2-.3-1.6-1-.4-.7-.7-1.8-.7-3.4V72.8c0-.4.1-.7.2-1 .1-.3.3-.5.6-.7.3-.2.7-.3 1.2-.4.5-.1 1.1-.2 1.8-.2.8 0 1.4.1 1.9.2s.9.2 1.2.4c.3.2.5.4.6.7.1.3.2.6.2 1v55.5h11.9c.2 0 .4.1.5.3.1.2.3.5.4 1 .1.4.2 1 .2 1.8v2.6zM38.6 137.5c.1.6.2 1 .2 1.4s0 .6-.1.8-.3.3-.5.3-.6.1-1 .1h-1c-.2 0-.4-.1-.6-.1s-.2-.2-.3-.3c-.1-.1-.1-.3-.1-.5l-1.1-6.3h-6.4l-1.1 6.1c0 .2-.1.4-.1.6-.1.2-.1.3-.3.4s-.3.1-.5.2h-.9c-.4 0-.7 0-.9-.1s-.4-.2-.5-.3c-.1-.2-.1-.4-.1-.8 0-.3.1-.8.2-1.3l5.2-27.6c.1-.3.1-.5.2-.7.1-.2.2-.3.3-.4.2-.1.4-.1.6-.2h2.3c.3 0 .5.1.7.2.2.1.3.2.4.4.1.2.1.4.2.7l5.2 27.4zm-7.8-22.8l-2.4 13.2h4.8l-2.4-13.2zM53.3 130.6c0 1.1-.1 2.1-.2 3-.2.9-.4 1.7-.7 2.4-.3.7-.6 1.3-1.1 1.8-.4.5-.9.9-1.3 1.2-.5.3-1 .6-1.6.7s-1.2.2-1.9.2H42c-.3 0-.5-.2-.7-.5-.2-.3-.3-.8-.3-1.5v-27.1c0-.7.1-1.2.3-1.5.2-.3.4-.5.7-.5h4.3c1 0 1.9.2 2.6.5.7.3 1.3.8 1.8 1.5s.9 1.5 1.1 2.5.4 2.2.4 3.5c0 .8-.1 1.5-.2 2.1-.1.7-.3 1.3-.5 1.8s-.4 1-.7 1.4c-.3.4-.6.8-1 1 .5.2.9.4 1.3.8s.8.9 1.1 1.6c.3.6.5 1.4.7 2.2.3.8.4 1.8.4 2.9zm-4.5-13.1c0-.6-.1-1.2-.2-1.7s-.3-.9-.5-1.2c-.2-.3-.5-.6-.8-.8-.3-.2-.7-.3-1.3-.3h-1.7v8.1h1.9c.5 0 .9-.1 1.2-.3.3-.2.5-.5.7-.9.2-.4.3-.8.4-1.3.3-.6.3-1.1.3-1.6zm.9 13.3c0-.7-.1-1.4-.2-1.9-.1-.6-.3-1-.6-1.4s-.6-.7-1-.9-.9-.3-1.5-.3h-2v8.9h2.5c.5 0 .9-.1 1.2-.3.3-.2.6-.5.9-.8.2-.4.4-.8.6-1.3s.1-1.3.1-2z"/></g></svg>