<svg xmlns="http://www.w3.org/2000/svg" width="512" height="512" viewBox="0 0 512 512"><path fill="#9cf" d="M73.89 153.344c30.31 21.563 56.56 41.72 78.75 60.47l-45.468 48.748c-24.69-22.81-49.688-44.53-75-65.156l41.718-44.062z"/><path fill="#69c" d="M92.172 279.906c28.125 12.188 49.688 20.47 64.688 24.844-15.315 52.5-33.75 112.03-55.313 178.594-24.064-8.752-45.784-16.095-65.156-22.03C57.016 404.75 75.61 344.28 92.173 279.905z"/><path d="M114.672 136.938C89.36 113.188 64.202 91 39.202 70.375"/><path fill="#A8DFF3" d="M39.203 70.375l39.844-41.72c24.998 17.19 51.248 37.347 78.75 60.47l-43.125 47.813"/><path fill="#3D3D45" d="M227.172 480.062h-60V43.656h312.656v374.53c0 17.5-3.714 31.29-11.133 41.368-7.424 10.078-17.308 16.25-29.648 18.516-12.346 2.264-38.906 3.398-79.688 3.398-3.75-20.94-8.597-41.72-14.532-62.344 18.75.626 35.467.938 50.156.938 16.56 0 24.844-8.906 24.844-26.72V102.72H227.172V480.06z"/><path d="M248.734 133.656h150v54.375h-150zM394.984 216.156v167.812H302.64v24.844h-50.156V216.156h142.5zM302.64 270.53v59.064h42.188V270.53H302.64z"/></svg>