<svg xmlns="http://www.w3.org/2000/svg" viewBox="0 0 48 48" enable-background="new 0 0 48 48"><path d="M48 43c0 2.76-2.24 5-5 5H5c-2.76 0-5-2.24-5-5V5c0-2.76 2.24-5 5-5h38c2.76 0 5 2.24 5 5v38z" fill="#FFA726"/><g><path d="M18.96 32.22h-7.37v-.704c0-5.536.023-11.072-.015-16.608-.01-1.304-.118-2.627-.373-3.903-.237-1.19-.73-2.33-1.123-3.533.14-.016.287-.046.432-.046 2.295-.003 4.59.01 6.886-.013.41-.004.58.132.666.516.303 1.337.63 2.67.96 4.047.52-.572 1.018-1.187 1.584-1.734 3.088-2.985 6.694-4.136 10.89-2.89 2.05.61 3.35 2.03 4.042 4.072.444 1.312.63 2.634.63 4.006-.006 8.315-.003 16.63-.003 24.943v.773h-7.37v-.77c0-7.716 0-15.432-.003-23.148 0-.54.004-1.084-.067-1.616-.327-2.463-1.735-3.63-4.26-3.21-1.593.264-2.854 1.175-3.97 2.297-.322.324-.637.658-.93 1.008-.375.445-.628.907-.624 1.553.03 4.746.017 9.49.017 14.237v.723z" fill="#fff"/></g></svg>