<?xml version="1.0" encoding="utf-8"?>
<!-- Generator: Adobe Illustrator 19.1.0, SVG Export Plug-In . SVG Version: 6.00 Build 0)  -->
<svg version="1.1" id="图层_1" xmlns="http://www.w3.org/2000/svg" xmlns:xlink="http://www.w3.org/1999/xlink" x="0px" y="0px"
	 viewBox="0 0 64 64" style="enable-background:new 0 0 64 64;" xml:space="preserve">
<style type="text/css">
	.st0{fill:#686868;}
</style>
<g>
	<path class="st0" d="M32,0.1C14.4,0.1,0.1,14.4,0.1,32c0,17.6,14.3,31.9,31.9,31.9c17.6,0,31.9-14.3,31.9-31.9
		C63.9,14.4,49.6,0.1,32,0.1z M32.4,48.7c-10.1,0-18.4-8.2-18.4-18.4c0-10.1,8.2-18.4,18.4-18.4s18.4,8.2,18.4,18.4
		C50.8,40.4,42.6,48.7,32.4,48.7z"/>
</g>
<g>
	<path class="st0" d="M32.4,15.2c-8.3,0-15.1,6.8-15.1,15.1s6.8,15.1,15.1,15.1s15.1-6.8,15.1-15.1S40.8,15.2,32.4,15.2z M20,30.9
		c-0.3,0-0.6-0.3-0.6-0.6c0-0.3,0.3-0.6,0.6-0.6c0.3,0,0.6,0.3,0.6,0.6C20.6,30.7,20.3,30.9,20,30.9z M32.4,17.3
		c0.3,0,0.6,0.3,0.6,0.6c0,0.3-0.3,0.6-0.6,0.6s-0.6-0.3-0.6-0.6C31.9,17.6,32.1,17.3,32.4,17.3z M32.4,43.4c-0.3,0-0.6-0.3-0.6-0.6
		s0.3-0.6,0.6-0.6s0.6,0.3,0.6,0.6S32.8,43.4,32.4,43.4z M40.8,23.4l-6.1,6.1c0.1,0.3,0.1,0.5,0.1,0.8c0,1.3-1.1,2.4-2.4,2.4
		c-1.3,0-2.4-1.1-2.4-2.4c0-0.3,0.1-0.5,0.1-0.8l-4-4c-0.4-0.4-0.4-0.9,0-1.3c0.4-0.4,0.9-0.4,1.3,0l4,4c0.3-0.2,0.7-0.3,1.1-0.3
		c0.4,0,0.7,0.1,1.1,0.3l6-6c0.4-0.4,0.9-0.4,1.3,0C41.2,22.5,41.2,23.1,40.8,23.4z M44.9,29.7c0.3,0,0.6,0.3,0.6,0.6
		c0,0.3-0.3,0.6-0.6,0.6c-0.3,0-0.6-0.3-0.6-0.6C44.3,30,44.6,29.7,44.9,29.7z"/>
</g>
</svg>
