<svg xmlns="http://www.w3.org/2000/svg" viewBox="0 0 64 64" enable-background="new 0 0 64 64"><style type="text/css">.st0{fill:#686868;}</style><path class="st0" d="M32 .1C14.4.1.1 14.4.1 32 .1 49.6 14.4 63.9 32 63.9c17.6 0 31.9-14.3 31.9-31.9C63.9 14.4 49.6.1 32 .1zm.4 48.6C22.3 48.7 14 40.5 14 30.3c0-10.1 8.2-18.4 18.4-18.4s18.4 8.2 18.4 18.4c0 10.1-8.2 18.4-18.4 18.4zM32.4 15.2c-8.3 0-15.1 6.8-15.1 15.1s6.8 15.1 15.1 15.1 15.1-6.8 15.1-15.1-6.7-15.1-15.1-15.1zM20 30.9c-.3 0-.6-.3-.6-.6s.3-.6.6-.6.6.3.6.6c0 .4-.3.6-.6.6zm12.4-13.6c.3 0 .6.3.6.6s-.3.6-.6.6-.6-.3-.6-.6c.1-.3.3-.6.6-.6zm0 26.1c-.3 0-.6-.3-.6-.6s.3-.6.6-.6.6.3.6.6-.2.6-.6.6zm8.4-20l-6.1 6.1c.1.3.1.5.1.8 0 1.3-1.1 2.4-2.4 2.4-1.3 0-2.4-1.1-2.4-2.4 0-.3.1-.5.1-.8l-4-4c-.4-.4-.4-.9 0-1.3s.9-.4 1.3 0l4 4c.3-.2.7-.3 1.1-.3.4 0 .7.1 1.1.3l6-6c.4-.4.9-.4 1.3 0 .3.3.3.9-.1 1.2zm4.1 6.3c.3 0 .6.3.6.6s-.3.6-.6.6-.6-.3-.6-.6.3-.6.6-.6z"/></svg>