<svg xmlns="http://www.w3.org/2000/svg" width="512" height="512" viewBox="0 0 512 512"><path fill="#fff" d="M81.018 244.77c0-65.26.343-130.524-.28-195.78-.13-13.416 2.64-18.773 17.386-18.085 27.23 1.27 54.607 1.297 81.84.02 16.97-.792 22.35 4.353 22.242 21.79-.72 116.28-.287 232.562-.508 348.845-.023 12.29.642 21.995 13.505 29.538 13.19 7.735 11.028 21.46-3.75 26.56-32.267 11.14-64.468 23.105-99.587 22.21-23.7-.607-30.208-5.877-30.562-30.418-.596-41.524-.252-83.057-.28-124.587-.023-26.697-.008-53.395-.006-80.093z"/><path fill-rule="evenodd" clip-rule="evenodd" fill="#fff" d="M401.262 175.36c.004 40.94 1.058 81.918-.432 122.806-.77 21.327 8.603 34.973 24.735 45.678 7.67 5.09 15.823 9.735 14.24 20.22-1.55 10.216-10.188 14.286-19.214 15.904-36.072 6.458-72.342 12.897-97.57-24.35-5.04-7.437-8.367-3.576-11.735 1.59-15.54 23.818-38.398 29.57-65.03 26.684-15.775-1.71-25.928-7.7-23.534-25.82.62-4.668.62-9.552.004-14.213-2.033-15.392 2.486-21.95 19.86-21.347 20.665.72 35.322-19.32 37.908-43.65 5.09-47.913 2.004-95.905 2.762-143.852.472-29.66.584-59.348-.146-88.998-.292-11.842 3.748-15.246 15.26-14.977 29.653.69 59.337.653 88.994.024 11.056-.237 14.22 3.635 14.1 14.358-.488 43.31-.203 86.626-.2 129.943z"/></svg>