<svg xmlns="http://www.w3.org/2000/svg" viewBox="0 0 64 64" enable-background="new 0 0 64 64"><style type="text/css">.st0{fill:#686868;} .st1{fill:#FAFAFA;} .st2{fill:#FFFFFF;}</style><path class="st0" d="M32 0C14.4 0 0 14.4 0 32s14.4 32 32 32 32-14.4 32-32S49.6 0 32 0zm10.9 47.6c0 1.1-.9 1.9-2 1.9h-17c-1.1 0-2-.9-2-1.9V15.9c0-1.1.9-1.9 2-1.9h17c1.1 0 2 .9 2 1.9v31.7zM24.1 46.5h16.7V17H24.1v29.5zm8.3-27.8c.3 0 .6.2.6.6s-.3.6-.6.6-.6-.2-.6-.6.3-.6.6-.6zm0 22.6c1.3 0 2.4 1 2.4 2.2 0 1.2-1.1 2.2-2.4 2.2-1.3 0-2.4-1-2.4-2.2 0-1.2 1.1-2.2 2.4-2.2z"/><path class="st1" d="M25.4 24.6h4.1v3.1h-4.1zM30.4 24.6h4.1v3.1h-4.1zM35.3 24.6h4.1v3.1h-4.1zM25.4 28.3h4.1v3.1h-4.1zM30.4 28.3h4.1v3.1h-4.1zM35.3 28.3h4.1v3.1h-4.1zM25.4 32.1h4.1v3.1h-4.1zM30.4 32.1h4.1v3.1h-4.1zM35.3 32.1h4.1v3.1h-4.1zM25.4 35.9h4.1V39h-4.1zM30.4 35.9h9.1V39h-9.1z"/><path class="st2" d="M26.1 18.5h12.7v4.4H26.1z"/></svg>