<svg xmlns="http://www.w3.org/2000/svg" viewBox="0 0 64 64" enable-background="new 0 0 64 64"><style type="text/css">.st0{fill:#686868;}</style><path class="st0" d="M32 0C14.4 0 0 14.4 0 32s14.4 32 32 32 32-14.4 32-32S49.6 0 32 0zm20.6 38.7l-.2.9H13.5l-.3-.7c-.4-1-.6-2-.6-3 0-4.5 3.6-8.1 8.1-8.1h.1c1.5-5.5 6.6-9.4 12.3-9.4 6.8 0 12.3 5.3 12.8 11.9 3.8 0 6.9 3.1 6.9 6.9 0 .4-.1.9-.2 1.5zM45.2 32.2c-.3 0-.6 0-.9.1l-1.3.3V31c0-5.5-4.5-9.9-9.9-9.9-4.8 0-8.9 3.4-9.8 8.1l-.2 1-1-.1c-.3 0-.5-.1-.8-.1-3 0-5.5 2.5-5.5 5.5 0 .5.1.9.2 1.4h33.5v-.2c0-2.5-1.9-4.5-4.3-4.5z"/></svg>