<svg xmlns="http://www.w3.org/2000/svg" width="480" height="480" viewBox="0 -76.5 480 480" enable-background="new 0 -76.5 480 480"><path fill="#fff" d="M53.028 9.577h89.244v16.098H53.028zM370.563 217.827h98.75v-12.013l-104.06-.134V71.686h-13.49v146.14"/><path fill="#fff" d="M447.213 82.618h-75.38V71.686h73.31zM459.095 154.594h-87.26v-16.096h84.298zM181.033 171.584h43.146v14.796h-43.147zM29.366 197.63h113.118v16.1H29.366zM275.384 201.63h69.793v14.79h-69.793zM224.18 77.925L157.79 204.64l-11.646-6.244 66.39-126.71zM10.687 191.926L34.35 32.29h16.098L26.786 191.925zM453.156 202.436l-9.463-45.136h16.094l9.467 45.136zM371.834 85.665h16.1v50.565h-16.1zM255.28 71.686h16.103V261.7H255.28zM231.518 71.686h16.096v254.737h-16.096z"/></svg>