<?xml version="1.0" encoding="utf-8"?>
<!-- Generator: Adobe Illustrator 19.1.0, SVG Export Plug-In . SVG Version: 6.00 Build 0)  -->
<svg version="1.1" id="图层_1" xmlns="http://www.w3.org/2000/svg" xmlns:xlink="http://www.w3.org/1999/xlink" x="0px" y="0px"
	 viewBox="0 0 64 64" style="enable-background:new 0 0 64 64;" xml:space="preserve">
<style type="text/css">
	.st0{fill:#686868;}
	.st1{fill:#5C5D5D;}
</style>
<path class="st0" d="M32,0C14.4,0,0,14.4,0,32s14.4,32,32,32c17.6,0,32-14.4,32-32S49.6,0,32,0z M33.4,52.5
	c-0.3,0.5-0.8,0.8-1.4,0.8c-0.6,0-1.1-0.3-1.4-0.8C29.3,50.4,18,31.8,18,24.7c0-7.7,6.3-14,14-14c7.7,0,14,6.3,14,14
	C46,31.8,34.7,50.4,33.4,52.5z"/>
<path class="st1" d="M32,15c-5.2,0-9.5,4.2-9.5,9.5c0,4.1,6,15.1,9.5,21c3.5-5.9,9.5-16.9,9.5-21C41.5,19.3,37.2,15,32,15z M32,29.1
	c-2.8,0-5.1-2.3-5.1-5.1s2.3-5.1,5.1-5.1c2.8,0,5.1,2.3,5.1,5.1S34.8,29.1,32,29.1z"/>
</svg>
