<?xml version="1.0" encoding="utf-8"?>
<!-- Generator: Adobe Illustrator 16.0.0, SVG Export Plug-In . SVG Version: 6.00 Build 0)  -->
<!DOCTYPE svg PUBLIC "-//W3C//DTD SVG 1.1//EN" "http://www.w3.org/Graphics/SVG/1.1/DTD/svg11.dtd">
<svg version="1.1" id="图层_1" xmlns="http://www.w3.org/2000/svg" xmlns:xlink="http://www.w3.org/1999/xlink" x="0px" y="0px"
	 width="785.714px" height="1000px" viewBox="0 0 785.714 1000" enable-background="new 0 0 785.714 1000" xml:space="preserve">
<path d="M785.714,678.034c-14.508,46.5-37.387,93-68.635,139.5c-47.988,72.912-95.789,109.368-143.406,109.368
	c-18.227,0-44.268-5.952-78.119-17.856c-31.992-11.904-60.078-17.856-84.258-17.856c-22.692,0-49.104,6.139-79.236,18.414
	c-30.132,12.648-54.684,18.973-73.656,18.973c-56.544,0-112.53-48.174-167.958-144.522C35.762,686.962,8.42,593.404,8.42,503.38
	c0-84.815,21.018-154.38,63.054-208.692c41.664-53.568,94.488-80.352,158.472-80.352c26.784,0,59.706,5.58,98.766,16.74
	c38.688,11.16,64.356,16.74,77.004,16.74c16.74,0,43.338-6.324,79.793-18.972c37.945-12.648,70.123-18.972,96.535-18.972
	c44.268,0,83.885,12.09,118.854,36.27c19.344,13.392,38.688,31.992,58.031,55.8c-29.387,24.924-50.592,46.873-63.611,65.844
	c-24.18,34.968-36.27,73.47-36.27,115.506c0,46.128,12.834,87.606,38.502,124.434C723.218,644.554,752.605,667.99,785.714,678.034
	L785.714,678.034z M575.906,23.5c0,22.692-5.395,47.988-16.182,75.888c-11.16,27.9-28.459,53.568-51.895,77.004
	c-20.088,20.088-40.176,33.48-60.264,40.176c-13.764,4.092-33.107,7.254-58.032,9.486c1.116-55.428,15.624-103.23,43.524-143.406
	c27.527-39.804,74.027-67.332,139.5-82.584c0.371,1.116,0.836,3.162,1.395,6.138c0.559,2.976,1.023,5.022,1.395,6.138
	c0,1.488,0.094,3.348,0.279,5.58S575.906,22.012,575.906,23.5L575.906,23.5z"/>
</svg>
