<?xml version="1.0" encoding="utf-8"?>
<!-- Generator: Adobe Illustrator 15.0.0, SVG Export Plug-In . SVG Version: 6.00 Build 0)  -->
<!DOCTYPE svg PUBLIC "-//W3C//DTD SVG 1.1//EN" "http://www.w3.org/Graphics/SVG/1.1/DTD/svg11.dtd">
<svg version="1.1" id="图层_1" xmlns="http://www.w3.org/2000/svg" xmlns:xlink="http://www.w3.org/1999/xlink" x="0px" y="0px"
	 width="480px" height="480px" viewBox="0 -76.5 480 480" enable-background="new 0 -76.5 480 480" xml:space="preserve">
<rect x="53.028" y="9.577" fill="#FFFFFF" width="89.244" height="16.098"/>
<polyline fill="#FFFFFF" points="370.563,217.827 469.313,217.827 469.313,205.814 365.253,205.68 365.253,71.686 351.763,71.686
	351.763,217.827 "/>
<polygon fill="#FFFFFF" points="447.213,82.618 371.834,82.618 371.834,71.686 445.143,71.686 "/>
<polygon fill="#FFFFFF" points="459.095,154.594 371.834,154.594 371.834,138.498 456.133,138.498 "/>
<rect x="181.033" y="171.584" fill="#FFFFFF" width="43.146" height="14.796"/>
<rect x="29.366" y="197.631" fill="#FFFFFF" width="113.118" height="16.1"/>
<rect x="275.384" y="201.63" fill="#FFFFFF" width="69.793" height="14.791"/>
<polygon fill="#FFFFFF" points="224.179,77.925 157.792,204.639 146.146,198.396 212.537,71.686 "/>
<polygon fill="#FFFFFF" points="10.687,191.926 34.349,32.289 50.448,32.289 26.786,191.926 "/>
<polygon fill="#FFFFFF" points="453.156,202.436 443.693,157.3 459.787,157.3 469.254,202.436 "/>
<rect x="371.834" y="85.665" fill="#FFFFFF" width="16.1" height="50.565"/>
<rect x="255.281" y="71.686" fill="#FFFFFF" width="16.102" height="190.015"/>
<rect x="231.518" y="71.686" fill="#FFFFFF" width="16.096" height="254.737"/>
</svg>
