<?xml version="1.0" encoding="utf-8"?>
<!-- Generator: Adobe Illustrator 17.0.0, SVG Export Plug-In . SVG Version: 6.00 Build 0)  -->
<!DOCTYPE svg PUBLIC "-//W3C//DTD SVG 1.1//EN" "http://www.w3.org/Graphics/SVG/1.1/DTD/svg11.dtd">
<svg version="1.1" id="图层_1" xmlns="http://www.w3.org/2000/svg" xmlns:xlink="http://www.w3.org/1999/xlink" x="0px" y="0px"
	 width="480px" height="320px" viewBox="0 0 480 320" enable-background="new 0 0 480 320" xml:space="preserve">
<rect x="53.028" y="1.577" fill="#7E57C2" width="89.244" height="16.098"/>
<polyline fill="#7E57C2" points="370.563,209.827 469.313,209.827 469.313,197.814 365.253,197.679 365.253,63.686 351.763,63.686 
	351.763,209.827 "/>
<polygon fill="#7E57C2" points="447.213,74.618 371.834,74.618 371.834,63.686 445.143,63.686 "/>
<polygon fill="#7E57C2" points="459.095,146.594 371.834,146.594 371.834,130.498 456.133,130.498 "/>
<rect x="181.033" y="163.584" fill="#7E57C2" width="43.146" height="14.796"/>
<rect x="29.366" y="189.631" fill="#7E57C2" width="113.119" height="16.099"/>
<rect x="275.384" y="193.63" fill="#7E57C2" width="69.793" height="14.791"/>
<polygon fill="#7E57C2" points="224.179,69.925 157.792,196.638 146.146,190.396 212.537,63.686 "/>
<polygon fill="#7E57C2" points="10.687,183.926 34.349,24.289 50.448,24.289 26.786,183.926 "/>
<polygon fill="#7E57C2" points="453.156,194.436 443.693,149.3 459.788,149.3 469.254,194.436 "/>
<rect x="371.834" y="77.665" fill="#7E57C2" width="16.1" height="50.565"/>
<rect x="255.281" y="63.686" fill="#7E57C2" width="16.101" height="190.015"/>
<rect x="231.518" y="63.686" fill="#7E57C2" width="16.096" height="254.737"/>
<g>
</g>
<g>
</g>
<g>
</g>
<g>
</g>
<g>
</g>
<g>
</g>
</svg>
