<?xml version="1.0" encoding="utf-8"?>
<!-- Generator: Adobe Illustrator 17.0.0, SVG Export Plug-In . SVG Version: 6.00 Build 0)  -->
<!DOCTYPE svg PUBLIC "-//W3C//DTD SVG 1.1//EN" "http://www.w3.org/Graphics/SVG/1.1/DTD/svg11.dtd">
<svg version="1.1" id="图层_1" xmlns="http://www.w3.org/2000/svg" xmlns:xlink="http://www.w3.org/1999/xlink" x="0px" y="0px"
	 width="600px" height="300px" viewBox="0 0 600 300" enable-background="new 0 0 600 300" xml:space="preserve">
<rect x="3.685" y="104.202" transform="matrix(-0.7 0.7142 -0.7142 -0.7 359.9327 138.1106)" fill="none" width="294.542" height="80.917"/>
<g enable-background="new    ">
	<path d="M90.885,261.268c-4.395,2.519-8.386,3.465-11.972,2.838c-3.586-0.628-6.906-2.437-9.959-5.43l-5.437-5.328
		c-1.768-1.733-3.523-2.692-5.266-2.878s-3.403,0.524-4.978,2.132l-5.383-5.276c1.575-1.607,2.257-3.275,2.044-5.006
		c-0.211-1.73-1.219-3.479-3.022-5.247l-5.438-5.329c-3.053-2.991-4.924-6.271-5.614-9.834c-0.689-3.564,0.181-7.569,2.611-12.013
		l5.674,2.621c-0.934,2.061-0.998,4.098-0.19,6.114c0.806,2.016,2.265,4.057,4.371,6.121l5.438,5.329
		c1.857,1.82,3.115,3.833,3.772,6.035c0.659,2.203,0.602,4.502-0.169,6.896c2.414-0.784,4.729-0.869,6.945-0.255
		s4.235,1.813,6.056,3.599l5.437,5.328c2.107,2.065,4.176,3.48,6.208,4.247c2.032,0.767,4.068,0.662,6.109-0.313L90.885,261.268z"/>
	<path d="M87.15,245.791L48.154,207.57l13.335-13.605c4.672-4.767,10.044-7.202,16.117-7.308c6.071-0.105,11.491,2.178,16.258,6.851
		l6.455,6.326c4.786,4.69,7.177,10.063,7.176,16.118c-0.002,6.055-2.338,11.466-7.01,16.233L87.15,245.791z M61.846,205.657
		l26.97,26.434l5.67-5.785c2.52-2.571,3.59-5.583,3.211-9.035c-0.379-3.453-2.069-6.649-5.069-9.59l-6.508-6.378
		c-2.982-2.923-6.198-4.534-9.648-4.836c-3.451-0.302-6.436,0.834-8.956,3.405L61.846,205.657z"/>
	<path d="M135.014,198.08c-4.235,4.32-8.868,6.396-13.899,6.226c-5.031-0.171-9.636-2.303-13.814-6.398l-1.071-1.05
		c-4.339-4.252-6.737-8.913-7.195-13.983c-0.458-5.068,1.344-9.656,5.404-13.764c3.815-3.893,7.934-5.711,12.356-5.455
		c4.422,0.257,8.651,2.362,12.686,6.316l4.044,3.965l-16.932,17.274l0.082,0.237c2.104,1.818,4.302,2.791,6.593,2.918
		c2.29,0.127,4.476-0.872,6.559-2.997c1.715-1.749,2.994-3.41,3.835-4.983c0.842-1.573,1.536-3.37,2.081-5.392l6.895,2.609
		c-0.191,2.088-0.937,4.438-2.236,7.051C139.104,193.266,137.307,195.741,135.014,198.08z M110.465,175.017
		c-1.54,1.571-2.186,3.311-1.937,5.217c0.25,1.907,1.179,3.825,2.79,5.754l0.187,0.077l9.345-9.534l-0.589-0.578
		c-1.696-1.662-3.373-2.622-5.027-2.879C113.577,172.815,111.988,173.463,110.465,175.017z"/>
	<path d="M157.576,157.863c-0.857-0.84-2-1.146-3.43-0.921c-1.43,0.227-3.479,1.237-6.148,3.032
		c-4.004,2.728-7.554,4.298-10.653,4.708c-3.098,0.412-5.826-0.539-8.183-2.849c-2.481-2.432-3.565-5.559-3.25-9.381
		c0.315-3.821,2.188-7.483,5.618-10.982c3.587-3.66,7.336-5.735,11.248-6.226c3.911-0.489,7.126,0.587,9.646,3.232l0.107,0.21
		l-7.402,7.553c-1.161-1.138-2.474-1.689-3.941-1.657c-1.467,0.032-2.893,0.754-4.275,2.164c-1.225,1.25-1.884,2.547-1.976,3.891
		c-0.092,1.346,0.316,2.464,1.228,3.356c0.893,0.875,1.992,1.209,3.297,1.001c1.307-0.207,3.321-1.253,6.042-3.137
		c4.197-2.853,7.841-4.472,10.93-4.857c3.09-0.384,5.85,0.614,8.277,2.993c2.607,2.555,3.646,5.762,3.12,9.622
		s-2.584,7.619-6.171,11.279c-3.78,3.856-7.746,5.948-11.897,6.271c-4.152,0.325-7.424-0.791-9.819-3.349l-0.108-0.21l7.009-7.151
		c1.605,1.469,3.229,2.063,4.871,1.78c1.641-0.281,3.223-1.199,4.746-2.752c1.417-1.446,2.208-2.833,2.372-4.161
		C158.994,159.997,158.576,158.844,157.576,157.863z"/>
	<path d="M150.118,109.7l-7.665,7.821l-5.865-5.749l7.665-7.821L150.118,109.7z M186.034,144.901l-7.665,7.82l-28.979-28.402
		l7.665-7.821L186.034,144.901z"/>
	<path d="M176.956,125.66c-4.57-4.479-7.287-9.084-8.147-13.814c-0.86-4.729,0.468-8.888,3.985-12.477
		c1.592-1.625,3.358-2.694,5.298-3.208c1.94-0.514,4.018-0.544,6.231-0.089l-3.092-4.239l6.588-6.723l28.845,28.271
		c3.767,3.692,5.475,7.781,5.122,12.267c-0.353,4.485-2.69,8.934-7.012,13.343c-1.435,1.464-3.159,2.82-5.17,4.069
		c-2.012,1.249-4.048,2.229-6.11,2.939l-4.552-7.035c1.743-0.636,3.389-1.448,4.935-2.436c1.545-0.988,3.044-2.223,4.497-3.705
		c2.1-2.143,3.198-4.156,3.294-6.039c0.096-1.884-0.803-3.753-2.695-5.608l-2.625-2.573c0.25,1.924,0.091,3.748-0.475,5.468
		c-0.566,1.721-1.584,3.33-3.055,4.83c-3.482,3.553-7.498,5.043-12.047,4.47c-4.55-0.573-8.967-2.959-13.252-7.159L176.956,125.66z
		 M185.184,118.391c2.535,2.485,4.946,4.017,7.233,4.595c2.286,0.578,4.374-0.098,6.264-2.026c1.172-1.196,1.948-2.424,2.323-3.683
		c0.376-1.259,0.39-2.549,0.041-3.872l-12.562-12.312c-1.382-0.375-2.721-0.383-4.018-0.026c-1.295,0.357-2.512,1.118-3.649,2.278
		c-1.873,1.911-2.39,4.134-1.551,6.671c0.838,2.538,2.624,5.145,5.355,7.822L185.184,118.391z"/>
	<path d="M200.708,71.959l4.493,3.721c-0.537-2.417-0.525-4.732,0.036-6.948c0.561-2.215,1.699-4.199,3.414-5.949
		c2.87-2.928,6.052-4.29,9.545-4.087c3.494,0.204,7.276,2.301,11.347,6.291l17.757,17.404l-7.691,7.847l-17.73-17.377
		c-2.07-2.03-3.894-3.107-5.469-3.233c-1.574-0.125-3.07,0.535-4.488,1.981c-1.138,1.161-1.921,2.396-2.35,3.708
		c-0.428,1.313-0.539,2.632-0.331,3.956l20.971,20.554l-7.665,7.82l-28.979-28.403L200.708,71.959z"/>
	<path d="M256.386,83.944c0.934-2.06,0.998-4.098,0.191-6.114c-0.808-2.017-2.264-4.057-4.371-6.122l-5.437-5.329
		c-1.856-1.819-3.097-3.841-3.721-6.062s-0.514-4.565,0.327-7.03c-2.448,0.891-4.794,1.042-7.036,0.455
		c-2.242-0.587-4.301-1.8-6.175-3.637l-5.438-5.329c-2.106-2.064-4.177-3.48-6.208-4.247c-2.032-0.766-4.068-0.661-6.109,0.313
		l-2.735-5.621c4.377-2.501,8.359-3.447,11.945-2.838c3.585,0.609,6.906,2.41,9.958,5.402l5.438,5.329
		c1.803,1.768,3.567,2.744,5.293,2.93c1.726,0.187,3.393-0.542,5.003-2.185l5.383,5.276c-1.61,1.643-2.3,3.33-2.07,5.059
		c0.229,1.73,1.228,3.461,2.996,5.194l5.437,5.329c3.053,2.993,4.925,6.28,5.615,9.862c0.689,3.582-0.172,7.586-2.584,12.013
		L256.386,83.944z"/>
</g>
<rect x="244.901" y="160.045" fill="none" width="115.868" height="78.049"/>
<g enable-background="new    ">
	<path d="M247.257,202.268c0-5.672,1.582-10.318,4.746-13.939s7.546-5.432,13.148-5.432c5.625,0,10.031,1.805,13.219,5.414
		c3.187,3.609,4.781,8.262,4.781,13.957v0.738c0,5.719-1.588,10.377-4.764,13.975c-3.176,3.598-7.564,5.396-13.166,5.396
		c-5.625,0-10.025-1.799-13.201-5.396c-3.176-3.598-4.764-8.256-4.764-13.975V202.268z M257.488,203.006
		c0,3.469,0.609,6.252,1.828,8.35c1.218,2.098,3.187,3.146,5.906,3.146c2.648,0,4.588-1.055,5.818-3.164s1.846-4.887,1.846-8.332
		v-0.738c0-3.375-0.621-6.129-1.863-8.262c-1.243-2.133-3.199-3.199-5.871-3.199c-2.649,0-4.588,1.072-5.818,3.217
		s-1.846,4.893-1.846,8.244V203.006z"/>
	<path d="M312.789,216.014c-1.173,2.039-2.66,3.609-4.465,4.711c-1.806,1.102-3.902,1.652-6.293,1.652
		c-4.008,0-7.143-1.359-9.405-4.078c-2.262-2.719-3.393-6.938-3.393-12.656V183.6h10.23v22.113c0,3.328,0.451,5.607,1.354,6.838
		c0.901,1.23,2.303,1.846,4.201,1.846c1.64,0,3.046-0.264,4.219-0.791c1.172-0.527,2.132-1.307,2.883-2.338V183.6h10.266v38.039
		h-8.508L312.789,216.014z"/>
	<path d="M350.125,192.424l-3.762-0.105c-1.524,0-2.777,0.316-3.762,0.949s-1.735,1.523-2.25,2.672v25.699h-10.23V183.6h9.527
		l0.457,5.625c0.891-1.992,2.044-3.545,3.463-4.658c1.418-1.113,3.053-1.67,4.904-1.67c0.515,0,0.989,0.041,1.424,0.123
		c0.434,0.082,0.873,0.182,1.318,0.299L350.125,192.424z"/>
</g>
<rect x="321.852" y="102.197" transform="matrix(-0.7004 -0.7137 0.7137 -0.7004 687.9131 578.009)" fill="none" width="286.819" height="84.875"/>
<g enable-background="new    ">
	<path d="M368.981,58.341l-0.181,0.177l10.938,23.372l-8.189,8.037l-14.421-36.798l6.835-6.707l36.491,15.139l-8.19,8.037
		L368.981,58.341z"/>
	<path d="M423.963,118.462l-0.122,0.238c-4.599,4.669-9.66,6.839-15.186,6.51c-5.526-0.332-10.819-3.075-15.882-8.234
		c-5.162-5.259-7.638-11.164-7.426-17.715c0.21-6.551,2.995-12.457,8.355-17.716l8.701-8.54c5.339-5.24,11.256-7.954,17.752-8.141
		c6.494-0.188,12.254,2.278,17.277,7.396c5.239,5.339,8.032,10.795,8.378,16.367c0.345,5.572-1.891,10.642-6.706,15.211l-0.24,0.117
		l-8.392-8.551c2.81-2.758,4.238-5.489,4.283-8.194c0.046-2.703-1.32-5.471-4.098-8.301c-2.582-2.63-5.654-3.643-9.22-3.04
		c-3.565,0.603-7.024,2.549-10.377,5.839l-8.762,8.599c-3.372,3.309-5.359,6.786-5.96,10.43c-0.601,3.644,0.458,6.85,3.177,9.621
		c2.58,2.629,5.192,3.917,7.839,3.862c2.646-0.055,5.394-1.48,8.244-4.278L423.963,118.462z"/>
	<path d="M430.295,120.759c4.857-4.767,10.167-7.317,15.928-7.651s10.994,1.898,15.702,6.696c4.729,4.817,6.886,10.108,6.475,15.872
		c-0.413,5.763-3.058,11.039-7.936,15.825l-0.632,0.621c-4.898,4.807-10.222,7.361-15.973,7.665
		c-5.751,0.305-10.979-1.942-15.688-6.739c-4.728-4.818-6.886-10.099-6.474-15.843c0.411-5.744,3.066-11.019,7.964-15.826
		L430.295,120.759z M438.262,130.142c-2.971,2.916-4.843,5.777-5.615,8.583c-0.772,2.807-0.016,5.375,2.27,7.704
		c2.227,2.268,4.76,3.042,7.601,2.323s5.736-2.526,8.687-5.422l0.633-0.621c2.891-2.836,4.727-5.683,5.509-8.541
		c0.783-2.855,0.052-5.428-2.194-7.716c-2.226-2.269-4.773-3.028-7.645-2.279c-2.871,0.749-5.741,2.531-8.612,5.348L438.262,130.142
		z"/>
	<path d="M463.881,156.127c5.138-5.042,10.372-8.002,15.7-8.876s9.972,0.705,13.932,4.74c1.596,1.626,2.683,3.437,3.26,5.43
		c0.578,1.995,0.696,4.124,0.358,6.388l17.854-17.522l8.657,8.823l-46.971,46.095l-7.357-7.497l3.266-4.683
		c-2.51,0.454-4.851,0.367-7.022-0.261c-2.172-0.627-4.144-1.843-5.917-3.649c-3.92-3.995-5.504-8.539-4.749-13.633
		c0.753-5.095,3.539-10.005,8.356-14.732L463.881,156.127z M471.847,165.51c-2.851,2.797-4.621,5.479-5.311,8.049
		c-0.69,2.569,0.027,4.938,2.155,7.105c1.241,1.265,2.58,2.117,4.019,2.559c1.438,0.44,2.943,0.48,4.519,0.116l13.88-13.621
		c0.433-1.606,0.478-3.158,0.133-4.652c-0.343-1.495-1.126-2.865-2.347-4.109c-2.108-2.147-4.604-2.782-7.486-1.905
		c-2.882,0.879-5.857,2.824-8.929,5.838L471.847,165.51z"/>
	<path d="M496.576,222.75c-4.768-4.858-7.001-10.115-6.698-15.771c0.301-5.654,2.801-10.787,7.498-15.396l1.204-1.182
		c4.878-4.787,10.172-7.382,15.884-7.786c5.712-0.403,10.833,1.724,15.363,6.38c4.294,4.375,6.249,9.048,5.864,14.016
		c-0.385,4.969-2.846,9.679-7.382,14.13l-4.547,4.462l-19.059-19.42l-0.27,0.087c-2.09,2.327-3.231,4.777-3.425,7.351
		s0.882,5.055,3.226,7.443c1.932,1.968,3.771,3.442,5.523,4.423c1.749,0.981,3.756,1.8,6.018,2.458l-3.086,7.697
		c-2.345-0.261-4.971-1.15-7.881-2.67C501.901,227.454,499.156,225.38,496.576,222.75z M523.053,195.644
		c-1.733-1.768-3.676-2.53-5.826-2.293c-2.15,0.239-4.327,1.242-6.531,3.011l-0.091,0.21l10.519,10.718l0.662-0.65
		c1.907-1.871,3.023-3.734,3.35-5.592C525.46,199.19,524.767,197.389,523.053,195.644z"/>
	<path d="M548.747,242.184l0.181-0.177l-11.112-23.731l8.1-7.948l14.746,37.07l-6.835,6.707l-36.816-15.411l8.13-7.979
		L548.747,242.184z"/>
</g>
</svg>
