<?xml version="1.0" encoding="utf-8"?>
<!-- Generator: Adobe Illustrator 17.0.0, SVG Export Plug-In . SVG Version: 6.00 Build 0)  -->
<!DOCTYPE svg PUBLIC "-//W3C//DTD SVG 1.1//EN" "http://www.w3.org/Graphics/SVG/1.1/DTD/svg11.dtd">
<svg version="1.1" xmlns="http://www.w3.org/2000/svg" xmlns:xlink="http://www.w3.org/1999/xlink" x="0px" y="0px" width="48px"
	 height="48px" viewBox="0 0 48 48" enable-background="new 0 0 48 48" xml:space="preserve">
<g id="图层_5">
	<path fill="#FFFFFF" d="M19,32.2c-2.5,0-4.9,0-7.4,0c0-0.3,0-0.5,0-0.7c0-5.5,0-11.1,0-16.6c0-1.3-0.1-2.6-0.4-3.9
		c-0.2-1.2-0.7-2.3-1.1-3.5c0.1,0,0.3,0,0.4,0c2.3,0,4.6,0,6.9,0c0.4,0,0.6,0.1,0.7,0.5c0.3,1.3,0.6,2.7,1,4c0.5-0.6,1-1.2,1.6-1.7
		c3.1-3,6.7-4.1,10.9-2.9c2.1,0.6,3.4,2,4,4.1c0.4,1.3,0.6,2.6,0.6,4c0,8.3,0,16.6,0,24.9c0,0.2,0,0.5,0,0.8c-2.5,0-4.9,0-7.4,0
		c0-0.3,0-0.5,0-0.8c0-7.7,0-15.4,0-23.1c0-0.5,0-1.1-0.1-1.6c-0.3-2.5-1.7-3.6-4.3-3.2c-1.6,0.3-2.9,1.2-4,2.3
		c-0.3,0.3-0.6,0.7-0.9,1c-0.4,0.4-0.6,0.9-0.6,1.6c0,4.7,0,9.5,0,14.2C19,31.7,19,32,19,32.2z"/>
	<g>
	</g>
	<g>
	</g>
	<g>
	</g>
	<g>
	</g>
	<g>
	</g>
	<g>
	</g>
</g>
</svg>
