<?xml version="1.0" encoding="utf-8"?>
<!-- Generator: Adobe Illustrator 17.0.0, SVG Export Plug-In . SVG Version: 6.00 Build 0)  -->
<!DOCTYPE svg PUBLIC "-//W3C//DTD SVG 1.1//EN" "http://www.w3.org/Graphics/SVG/1.1/DTD/svg11.dtd">
<svg version="1.1" id="图层_1" xmlns="http://www.w3.org/2000/svg" xmlns:xlink="http://www.w3.org/1999/xlink" x="0px" y="0px"
	 width="512px" height="512px" viewBox="0 0 512 512" enable-background="new 0 0 512 512" xml:space="preserve">
<path fill="#99CCFF" d="M73.89,153.344c30.311,21.563,56.561,41.719,78.75,60.469l-45.468,48.749
	c-24.69-22.811-49.688-44.531-75-65.156L73.89,153.344z"/>
<path fill="#6699CC" d="M92.172,279.906c28.125,12.188,49.688,20.471,64.688,24.844c-15.315,52.5-33.75,112.031-55.313,178.594
	c-24.064-8.752-45.784-16.095-65.156-22.031C57.015,404.751,75.608,344.282,92.172,279.906z"/>
<path d="M114.672,136.938C89.359,113.189,64.201,91,39.203,70.375"/>
<path fill="#A8DFF3" d="M39.203,70.375l39.844-41.719c24.998,17.19,51.248,37.346,78.75,60.469l-43.125,47.813"/>
<path fill="#3D3D45" d="M227.172,480.062h-60V43.656h312.656v374.531c0,17.498-3.714,31.289-11.133,41.367
	c-7.424,10.078-17.308,16.249-29.648,18.516c-12.346,2.264-38.906,3.398-79.688,3.398c-3.75-20.939-8.596-41.719-14.531-62.344
	c18.75,0.626,35.467,0.938,50.156,0.938c16.56,0,24.844-8.906,24.844-26.719V102.719H227.172V480.062z"/>
<rect x="248.734" y="133.656" width="150" height="54.375"/>
<path d="M394.984,216.156v167.812H302.64v24.844h-50.156V216.156H394.984z M302.64,270.531v59.063h42.188v-59.063H302.64z"/>
</svg>
