<?xml version="1.0" encoding="utf-8"?>
<!-- Generator: Adobe Illustrator 17.0.0, SVG Export Plug-In . SVG Version: 6.00 Build 0)  -->
<!DOCTYPE svg PUBLIC "-//W3C//DTD SVG 1.1//EN" "http://www.w3.org/Graphics/SVG/1.1/DTD/svg11.dtd">
<svg version="1.1" id="图层_1" xmlns="http://www.w3.org/2000/svg" xmlns:xlink="http://www.w3.org/1999/xlink" x="0px" y="0px"
	 width="512px" height="512px" viewBox="0 0 512 512" enable-background="new 0 0 512 512" xml:space="preserve">
<g>
	<rect x="9.448" y="10.31" fill="none" width="493.103" height="491.379"/>
	<path d="M57.729,153.982c30.311,21.563,56.561,41.719,78.75,60.469L91.011,263.2c-24.69-22.811-49.688-44.531-75-65.156
		L57.729,153.982z M76.011,280.544c28.125,12.188,49.688,20.471,64.688,24.844c-15.315,52.5-33.75,112.031-55.313,178.594
		c-24.064-8.752-45.784-16.095-65.156-22.031C40.854,405.389,59.447,344.92,76.011,280.544z M62.886,29.294
		c24.998,17.19,51.248,37.346,78.75,60.469l-43.125,47.813C73.198,113.827,48.04,91.638,23.042,71.013L62.886,29.294z
		 M211.011,480.7h-60V44.294h312.656v374.531c0,17.498-3.714,31.289-11.133,41.367c-7.424,10.078-17.308,16.249-29.648,18.516
		c-12.346,2.264-38.906,3.398-79.688,3.398c-3.75-20.939-8.596-41.719-14.531-62.344c18.75,0.626,35.467,0.938,50.156,0.938
		c16.56,0,24.844-8.906,24.844-26.719V103.357H211.011V480.7z M382.573,188.669h-150v-54.375h150V188.669z M378.823,216.794v167.812
		h-92.344v24.844h-50.156V216.794H378.823z M286.479,271.169v59.063h42.188v-59.063H286.479z"/>
</g>
<g>
</g>
<g>
</g>
<g>
</g>
<g>
</g>
<g>
</g>
<g>
</g>
<g>
</g>
<g>
</g>
<g>
</g>
<g>
</g>
<g>
</g>
<g>
</g>
<g>
</g>
<g>
</g>
<g>
</g>
</svg>
