<?xml version="1.0" encoding="utf-8"?>
<!-- Generator: Adobe Illustrator 17.0.0, SVG Export Plug-In . SVG Version: 6.00 Build 0)  -->
<!DOCTYPE svg PUBLIC "-//W3C//DTD SVG 1.1//EN" "http://www.w3.org/Graphics/SVG/1.1/DTD/svg11.dtd">
<svg version="1.1" id="图层_1" xmlns="http://www.w3.org/2000/svg" xmlns:xlink="http://www.w3.org/1999/xlink" x="0px" y="0px"
	 width="141.7px" height="141.7px" viewBox="0 0 141.7 141.7" enable-background="new 0 0 141.7 141.7" xml:space="preserve">
<g display="none">
	<path display="inline" fill="#221D1E" d="M69.7,125.7h4v8.1h-1.2v-0.9h-1.6v1h-1.2V125.7z M72.5,126.5h-1.6v5.6h1.6V126.5z
		 M74.1,132.4h4.8v-1.9h-2.9c-0.3,0.5-0.6,1-1,1.4c-0.4-0.2-0.8-0.3-1.1-0.4c0.8-1,1.4-2,1.9-2.9l1.1,0.3c-0.2,0.3-0.3,0.6-0.5,0.9
		h2.4v-1.2h1.2v1.2H84v0.8h-3.9v1.9h4.6v0.8h-4.6v2.5h-1.2v-2.5h-4.8V132.4z M81.5,125.5c1,0.9,2,1.8,3,2.7l-1.1,0.5
		c-0.3-0.3-0.5-0.6-0.8-0.9c-2.5,0.1-4.6,0.2-6.2,0.3c-0.4,0-0.9,0.1-1.4,0.2l-0.6-0.9c0.5-0.1,0.9-0.3,1.2-0.5
		c1-0.7,1.9-1.5,2.7-2.5l1.3,0.4c-1.1,1-2.1,1.8-2.9,2.5c1.6,0,3.3-0.1,5.2-0.2c-0.4-0.4-0.8-0.8-1.3-1.2L81.5,125.5z"/>
	<path display="inline" fill="#221D1E" d="M86.6,133.5c0-0.2,0.1-0.4,0.3-0.5c0.2-0.1,0.4-0.2,0.7-0.2c0.3,0,0.5,0.1,0.7,0.2
		c0.2,0.1,0.3,0.3,0.3,0.5c0,0.2-0.1,0.4-0.3,0.5s-0.4,0.2-0.7,0.2c-0.3,0-0.6-0.1-0.8-0.2C86.7,133.9,86.6,133.7,86.6,133.5z
		 M88.4,125.3l-0.2,6.3h-1.3l-0.2-6.3H88.4z"/>
	<path display="inline" fill="#221D1E" d="M90.5,134.9c4-0.5,6.5-1.4,7.7-2.5h-7.4v-0.8h8c0.4-0.8,0.5-2.2,0.5-4.1h1.4
		c0,2-0.2,3.3-0.5,4.1h6.1v0.8h-6.6c-0.1,0.1-0.2,0.3-0.3,0.4c2.3,0.7,4.6,1.4,6.8,2.1l-0.7,0.9c-2.3-0.8-4.6-1.6-6.8-2.3
		c-1.5,1-3.9,1.8-7.4,2.3C91,135.4,90.8,135.1,90.5,134.9z M91,126.1h7.4c-0.3-0.3-0.6-0.7-1.1-1.2l1.2-0.5c0.4,0.3,0.8,0.8,1.3,1.3
		l-0.9,0.3h6.9v2h-1.3v-1.2H92.3v1.2H91V126.1z M93,129.1c1.2,0.4,2.4,0.8,3.5,1.2l-0.7,0.8c-1.1-0.5-2.2-0.9-3.4-1.3L93,129.1z
		 M94.5,127.4c1.2,0.4,2.4,0.9,3.4,1.3l-0.7,0.8c-1-0.5-2.1-0.9-3.3-1.4L94.5,127.4z"/>
	<path display="inline" fill="#221D1E" d="M106.8,132.2c1.2-0.2,2.6-0.4,4.1-0.6c0,0.3,0,0.6,0,0.8c-1.2,0.2-2.5,0.4-3.9,0.7
		L106.8,132.2z M109.2,126.6l-0.4,3.1h1.6l0.4-3.8h-3.7v-0.8h4.9l-0.5,4.6h1c-0.1,1.6-0.1,2.9-0.2,4c0,1.2-0.7,1.7-2.1,1.7
		c-0.6,0-1.3,0-2,0c-0.1-0.3-0.1-0.6-0.2-0.9c0.8,0.1,1.5,0.1,2.1,0.1c0.8,0,1.2-0.3,1.2-1c0.1-0.8,0.1-1.9,0.2-3.1h-3.9l0.5-3.9
		H109.2z M118.6,124.5l-0.3,0.4c1.3,1.6,2.9,2.8,4.8,3.6c-0.3,0.3-0.6,0.6-0.9,0.8c-1.9-1-3.4-2.2-4.6-3.6c-1.1,1.4-2.6,2.6-4.6,3.7
		c-0.2-0.2-0.5-0.4-0.8-0.7c2.1-1,3.8-2.4,4.9-4.2H118.6z M112.8,134.3h5.8c0.8-1.4,1.5-2.8,2.1-4.2l1.2,0.3c-0.6,1.4-1.3,2.7-2,4
		h2.8v0.8h-9.9V134.3z M113.6,130.7l1.1-0.3c0.5,1.1,1,2,1.3,2.9l-1.2,0.3C114.5,132.6,114.1,131.6,113.6,130.7z M114.4,128.7h6.7
		v0.8h-6.7V128.7z M116.4,130.2l1.1-0.2c0.5,1.1,0.8,2.1,1.1,3l-1.2,0.2C117.1,132.1,116.8,131.1,116.4,130.2z"/>
	<path display="inline" fill="#221D1E" d="M123.6,134.4h7.3v-1.3h-5.8v-0.8h5.8V131c-1.1,0-2.2,0.1-3.3,0.1c-0.5,0-1.1,0.1-1.6,0.1
		l-0.5-0.9c0.4-0.1,0.8-0.3,1.3-0.5c0.8-0.4,1.5-0.7,2.1-1.1h-2.9v-0.8h11.4v0.8h-6.6c-0.9,0.5-1.9,1-3,1.6c2.3-0.1,4.7-0.1,7-0.2
		c-0.3-0.2-0.7-0.4-1.1-0.7l0.9-0.6c1.4,0.8,2.5,1.5,3.5,2.1l-1,0.7c-0.3-0.3-0.7-0.5-1.1-0.8c-1.3,0-2.5,0.1-3.8,0.1v1.4h5.8v0.8
		h-5.8v1.3h7.3v0.8h-15.9V134.4z M124.2,125.9h7.1c-0.3-0.4-0.6-0.8-1-1.2l1.1-0.4c0.4,0.4,0.8,0.9,1.2,1.3l-0.8,0.3h7.2v2.1h-1.3
		v-1.3h-12.2v1.3h-1.3V125.9z"/>
</g>
<line id="line" display="none" fill="none" stroke="#221D1E" stroke-width="2" x1="1.9" y1="120.7" x2="139.8" y2="120.7"/>
<path fill="#FFFFFF" d="M68.1,34.7c7.5,7.5,25.6,4.2,42.6-6.4c13.3-8.3,14-14.4,14-14.4s7.5,6.9,6.9,11.1c-0.5,3.6-2.8,8.6-1,10.4
	c9.3,9.3,11.8,17.7,8.9,24.4c-4.3,10-16.1,29.7-51.2,29.7c-31.6,0-45.8-17.4-47.7-24.3c-5.1-19,10.1-25.4,11.1-31.7
	c2.3-14.2,17.3-18.2,17.3-18.2S61.6,28.2,68.1,34.7z M119.9,67.1c14.4-9.9,3.9-24.3,3.9-24.3L96.6,63.4
	C96.6,63.4,110.2,73.8,119.9,67.1z M73.4,63.1L50.2,45.6c0,0-10.6,11.1,1.7,19.5C60.2,70.7,73.4,63.1,73.4,63.1z"/>
<path id="mU" fill="#FFFFFF" d="M120.4,138.7c15.3,0,18.9-15.4,17.8-21.5c-1-5.4-4.4-11.4-3.8-11.3c1.4,0.1,2.6,1.3,3.2,0.6
	c0.8-0.9,3.9-10.6,2.8-13.5c0,0-9.7-0.9-14.4,5.6c-0.4,0.5,2.4,3.1,2.7,4.1c0.2,0.5,9.7,27.6-7.1,27.6c-10.1,0-13.3-10.4-13.3-10.4
	V83l-8.2,3.5c0,0,0,30.1,0,32.6c0,2.1-3.1,11.3-12.3,11.3c-9.3,0-13.3-8.6-13.3-12c0-8.8,0-33.2,0-33.2l-9.3-4c0,0,0,34.1,0,38.1
	c0,4-0.3,9.2-5.1,11.6s-5.3,4.2-4.7,6.4c0.5,2.2,6.4,3.2,8.9,2.1c5.9-2.4,8.4-11.9,7.4-10c0,0,6.1,9.7,16.6,10
	c10.5,0.3,15.9-10.7,15.9-10.7S110.7,138.7,120.4,138.7z"/>
<g>
	<path fill="#FFFFFF" d="M22.4,134c0,1.1,0,2-0.1,2.7s-0.1,1.3-0.2,1.8s-0.2,0.8-0.4,1c-0.1,0.2-0.3,0.3-0.5,0.3H4
		c-0.6,0-1.2-0.3-1.6-1c-0.4-0.7-0.7-1.8-0.7-3.4V72.8c0-0.4,0.1-0.7,0.2-1c0.1-0.3,0.3-0.5,0.6-0.7c0.3-0.2,0.7-0.3,1.2-0.4
		c0.5-0.1,1.1-0.2,1.8-0.2c0.8,0,1.4,0.1,1.9,0.2c0.5,0.1,0.9,0.2,1.2,0.4c0.3,0.2,0.5,0.4,0.6,0.7c0.1,0.3,0.2,0.6,0.2,1v55.5h11.9
		c0.2,0,0.4,0.1,0.5,0.3c0.1,0.2,0.3,0.5,0.4,1c0.1,0.4,0.2,1,0.2,1.8S22.4,133,22.4,134z"/>
	<path fill="#FFFFFF" d="M38.6,137.5c0.1,0.6,0.2,1,0.2,1.4s0,0.6-0.1,0.8s-0.3,0.3-0.5,0.3s-0.6,0.1-1,0.1c-0.4,0-0.8,0-1,0
		c-0.2,0-0.4-0.1-0.6-0.1s-0.2-0.2-0.3-0.3c-0.1-0.1-0.1-0.3-0.1-0.5l-1.1-6.3h-6.4l-1.1,6.1c0,0.2-0.1,0.4-0.1,0.6
		c-0.1,0.2-0.1,0.3-0.3,0.4s-0.3,0.1-0.5,0.2c-0.2,0-0.5,0-0.9,0c-0.4,0-0.7,0-0.9-0.1s-0.4-0.2-0.5-0.3c-0.1-0.2-0.1-0.4-0.1-0.8
		c0-0.3,0.1-0.8,0.2-1.3l5.2-27.6c0.1-0.3,0.1-0.5,0.2-0.7c0.1-0.2,0.2-0.3,0.3-0.4c0.2-0.1,0.4-0.1,0.6-0.2c0.3,0,0.6,0,1.1,0
		c0.5,0,0.9,0,1.2,0c0.3,0,0.5,0.1,0.7,0.2c0.2,0.1,0.3,0.2,0.4,0.4c0.1,0.2,0.1,0.4,0.2,0.7L38.6,137.5z M30.8,114.7L30.8,114.7
		l-2.4,13.2h4.8L30.8,114.7z"/>
	<path fill="#FFFFFF" d="M53.3,130.6c0,1.1-0.1,2.1-0.2,3c-0.2,0.9-0.4,1.7-0.7,2.4c-0.3,0.7-0.6,1.3-1.1,1.8
		c-0.4,0.5-0.9,0.9-1.3,1.2c-0.5,0.3-1,0.6-1.6,0.7s-1.2,0.2-1.9,0.2H42c-0.3,0-0.5-0.2-0.7-0.5c-0.2-0.3-0.3-0.8-0.3-1.5v-27.1
		c0-0.7,0.1-1.2,0.3-1.5c0.2-0.3,0.4-0.5,0.7-0.5h4.3c1,0,1.9,0.2,2.6,0.5c0.7,0.3,1.3,0.8,1.8,1.5s0.9,1.5,1.1,2.5s0.4,2.2,0.4,3.5
		c0,0.8-0.1,1.5-0.2,2.1c-0.1,0.7-0.3,1.3-0.5,1.8c-0.2,0.5-0.4,1-0.7,1.4c-0.3,0.4-0.6,0.8-1,1c0.5,0.2,0.9,0.4,1.3,0.8
		s0.8,0.9,1.1,1.6c0.3,0.6,0.5,1.4,0.7,2.2C53.2,128.5,53.3,129.5,53.3,130.6z M48.8,117.5c0-0.6-0.1-1.2-0.2-1.7
		c-0.1-0.5-0.3-0.9-0.5-1.2c-0.2-0.3-0.5-0.6-0.8-0.8c-0.3-0.2-0.7-0.3-1.3-0.3h-1.7v8.1h1.9c0.5,0,0.9-0.1,1.2-0.3
		c0.3-0.2,0.5-0.5,0.7-0.9c0.2-0.4,0.3-0.8,0.4-1.3C48.8,118.5,48.8,118,48.8,117.5z M49.7,130.8c0-0.7-0.1-1.4-0.2-1.9
		c-0.1-0.6-0.3-1-0.6-1.4s-0.6-0.7-1-0.9s-0.9-0.3-1.5-0.3h-2v8.9h2.5c0.5,0,0.9-0.1,1.2-0.3c0.3-0.2,0.6-0.5,0.9-0.8
		c0.2-0.4,0.4-0.8,0.6-1.3S49.7,131.5,49.7,130.8z"/>
</g>
<polygon id="L" display="none" fill="#221D1E" points="8.3,37 8.3,111.2 20.3,111.2 20.3,117.5 2.3,117.5 2.3,37 "/>
<g>
</g>
<g>
</g>
<g>
</g>
<g>
</g>
<g>
</g>
<g>
</g>
</svg>
