<?xml version="1.0" encoding="utf-8"?>
<!-- Generator: Adobe Illustrator 17.0.0, SVG Export Plug-In . SVG Version: 6.00 Build 0)  -->
<!DOCTYPE svg PUBLIC "-//W3C//DTD SVG 1.1//EN" "http://www.w3.org/Graphics/SVG/1.1/DTD/svg11.dtd">
<svg version="1.1" id="Layer_1" xmlns="http://www.w3.org/2000/svg" xmlns:xlink="http://www.w3.org/1999/xlink" x="0px" y="0px"
	 width="512px" height="512px" viewBox="0 0 512 512" enable-background="new 0 0 512 512" xml:space="preserve">
<path fill="#6DB7FE" d="M81.018,244.77c0-65.259,0.343-130.524-0.281-195.779c-0.128-13.417,2.642-18.774,17.387-18.086
	c27.231,1.269,54.607,1.297,81.839,0.021c16.97-0.793,22.351,4.352,22.243,21.788c-0.721,116.281-0.287,232.563-0.508,348.846
	c-0.023,12.29,0.642,21.995,13.505,29.538c13.19,7.735,11.028,21.459-3.751,26.56c-32.266,11.14-64.467,23.105-99.586,22.21
	c-23.699-0.607-30.208-5.877-30.562-30.418c-0.596-41.524-0.252-83.057-0.281-124.587C81.001,298.166,81.016,271.468,81.018,244.77z
	"/>
<path fill-rule="evenodd" clip-rule="evenodd" fill="#6DB7FE" d="M401.262,175.361c0.004,40.938,1.058,81.917-0.432,122.805
	c-0.77,21.327,8.603,34.973,24.735,45.678c7.669,5.09,15.823,9.735,14.24,20.219c-1.551,10.217-10.188,14.287-19.214,15.905
	c-36.073,6.458-72.343,12.897-97.571-24.349c-5.041-7.438-8.367-3.577-11.735,1.59c-15.539,23.817-38.398,29.569-65.029,26.683
	c-15.776-1.71-25.929-7.7-23.535-25.821c0.618-4.667,0.619-9.551,0.003-14.212c-2.033-15.391,2.486-21.95,19.859-21.346
	c20.666,0.72,35.323-19.321,37.909-43.649c5.091-47.914,2.004-95.906,2.762-143.853c0.472-29.661,0.584-59.349-0.146-88.999
	c-0.292-11.842,3.748-15.246,15.259-14.977c29.654,0.691,59.338,0.653,88.995,0.024c11.056-0.236,14.219,3.636,14.099,14.359
	C400.974,88.727,401.259,132.044,401.262,175.361z"/>
<g>
</g>
<g>
</g>
<g>
</g>
<g>
</g>
<g>
</g>
<g>
</g>
<g>
</g>
<g>
</g>
<g>
</g>
<g>
</g>
<g>
</g>
<g>
</g>
<g>
</g>
<g>
</g>
<g>
</g>
</svg>
