<?xml version="1.0" encoding="utf-8"?>
<!-- Generator: Adobe Illustrator 17.0.0, SVG Export Plug-In . SVG Version: 6.00 Build 0)  -->
<!DOCTYPE svg PUBLIC "-//W3C//DTD SVG 1.1//EN" "http://www.w3.org/Graphics/SVG/1.1/DTD/svg11.dtd">
<svg version="1.1" id="图层_1" xmlns="http://www.w3.org/2000/svg" xmlns:xlink="http://www.w3.org/1999/xlink" x="0px" y="0px"
	 width="600px" height="300px" viewBox="0 0 600 300" enable-background="new 0 0 600 300" xml:space="preserve">
<rect x="44.123" y="51.159" fill="none" width="440.308" height="129.6"/>
<g enable-background="new    ">
	<path d="M96.448,128.676c0-3.281-1.143-5.918-3.428-7.91s-6.299-3.867-12.041-5.625c-9.844-2.968-17.314-6.465-22.412-10.488
		c-5.098-4.022-7.646-9.512-7.646-16.465c0-6.992,2.871-12.705,8.613-17.139c5.742-4.433,13.066-6.65,21.973-6.65
		c9.453,0,17.06,2.383,22.822,7.148c5.761,4.767,8.544,11.016,8.35,18.75l-0.117,0.352H95.98c0-4.257-1.289-7.529-3.867-9.814
		s-6.192-3.428-10.84-3.428c-4.219,0-7.481,1.017-9.785,3.047c-2.305,2.031-3.457,4.629-3.457,7.793c0,2.892,1.25,5.265,3.75,7.119
		c2.5,1.855,6.816,3.818,12.949,5.889c9.375,2.657,16.523,6.123,21.445,10.4s7.383,9.912,7.383,16.904
		c0,7.305-2.852,13.066-8.555,17.285c-5.704,4.219-13.242,6.328-22.617,6.328c-9.18,0-17.061-2.285-23.643-6.855
		c-6.583-4.57-9.776-11.387-9.58-20.449l0.117-0.352h16.582c0,5.039,1.484,8.751,4.453,11.133c2.968,2.383,6.992,3.574,12.07,3.574
		c4.57,0,8.057-0.957,10.459-2.871C95.247,134.438,96.448,131.879,96.448,128.676z"/>
	<path d="M142.855,72.367h-17.109V59.535h17.109V72.367z M142.855,150.941h-17.109V87.543h17.109V150.941z"/>
	<path d="M172.796,87.543l0.703,8.379c2.031-3.047,4.58-5.399,7.646-7.061c3.066-1.66,6.611-2.49,10.635-2.49
		c4.062,0,7.539,0.899,10.43,2.695c2.89,1.797,5.078,4.512,6.563,8.145c1.953-3.398,4.492-6.055,7.617-7.969
		c3.125-1.913,6.797-2.871,11.016-2.871c6.25,0,11.181,2.218,14.795,6.65c3.613,4.434,5.42,11.201,5.42,20.303v37.617h-17.109
		v-37.676c0-5.077-0.782-8.613-2.344-10.605c-1.563-1.992-3.887-2.988-6.973-2.988c-2.422,0-4.522,0.537-6.299,1.611
		c-1.778,1.075-3.193,2.569-4.248,4.482c0,0.742,0.019,1.377,0.059,1.904c0.039,0.527,0.059,1.064,0.059,1.611v41.66h-17.051
		v-37.676c0-4.96-0.782-8.467-2.344-10.518c-1.563-2.051-3.907-3.076-7.031-3.076c-2.305,0-4.327,0.439-6.064,1.318
		c-1.739,0.879-3.174,2.119-4.307,3.721v46.23h-17.051V87.543H172.796z"/>
	<path d="M317.933,121c0,9.375-2.168,16.914-6.504,22.617c-4.336,5.704-10.392,8.555-18.164,8.555c-3.32,0-6.27-0.615-8.848-1.846
		s-4.786-3.037-6.621-5.42v30.41h-17.051V87.543h15.41l0.996,7.5c1.875-2.773,4.131-4.912,6.768-6.416
		c2.637-1.503,5.713-2.256,9.229-2.256c7.852,0,13.945,3.067,18.281,9.199c4.336,6.133,6.504,14.2,6.504,24.199V121z
		 M300.823,119.77c0-5.977-0.996-10.819-2.988-14.531c-1.992-3.711-5.039-5.566-9.141-5.566c-2.578,0-4.775,0.527-6.592,1.582
		s-3.252,2.559-4.307,4.512v27.773c1.055,1.797,2.49,3.164,4.307,4.102s4.052,1.406,6.709,1.406c4.14,0,7.178-1.62,9.111-4.863
		c1.934-3.242,2.9-7.637,2.9-13.184V119.77z"/>
	<path d="M346.468,150.941h-17.109V59.535h17.109V150.941z"/>
	<path d="M378.519,72.367h-17.109V59.535h17.109V72.367z M378.519,150.941h-17.109V87.543h17.109V150.941z"/>
	<path d="M397.034,150.941V99.555h-9.434V87.543h9.434v-7.031c0-7.109,2.051-12.588,6.152-16.436
		c4.102-3.847,9.863-5.771,17.285-5.771c1.444,0,2.92,0.108,4.424,0.322c1.503,0.215,3.154,0.519,4.951,0.908l-1.465,12.715
		c-0.938-0.155-1.846-0.293-2.725-0.41s-1.904-0.176-3.076-0.176c-2.774,0-4.873,0.762-6.299,2.285
		c-1.427,1.523-2.139,3.712-2.139,6.563v7.031h12.188v12.012h-12.188v51.387H397.034z"/>
	<path d="M457.269,124.34l0.703,3.516h0.352l12.129-40.313h18.398l-25.723,72.891c-1.797,4.531-4.239,8.35-7.324,11.455
		c-3.086,3.105-7.715,4.658-13.887,4.658c-1.445,0-2.783-0.117-4.014-0.352s-2.725-0.566-4.482-0.996l1.992-12.48
		c0.507,0.078,1.055,0.155,1.641,0.234c0.586,0.078,1.113,0.117,1.582,0.117c2.813,0,4.98-0.694,6.504-2.08
		c1.523-1.387,2.695-3.115,3.516-5.186l1.992-4.922l-22.5-63.34h18.398L457.269,124.34z"/>
</g>
<rect x="49.938" y="192.39" fill="none" width="434.492" height="68.954"/>
<g enable-background="new    ">
	<path d="M51.968,225.601c0-4.884,1.362-8.886,4.087-12.003c2.725-3.119,6.499-4.678,11.322-4.678c4.844,0,8.638,1.555,11.383,4.662
		c2.745,3.108,4.117,7.114,4.117,12.019v0.636c0,4.925-1.368,8.936-4.102,12.033c-2.735,3.099-6.514,4.647-11.337,4.647
		c-4.844,0-8.633-1.549-11.368-4.647c-2.735-3.098-4.102-7.108-4.102-12.033V225.601z M60.777,226.236
		c0,2.987,0.524,5.384,1.574,7.189c1.049,1.807,2.745,2.71,5.086,2.71c2.28,0,3.951-0.908,5.01-2.725s1.589-4.208,1.589-7.175
		v-0.636c0-2.906-0.535-5.277-1.604-7.114c-1.07-1.836-2.755-2.755-5.056-2.755c-2.281,0-3.951,0.923-5.01,2.771
		c-1.06,1.846-1.589,4.213-1.589,7.099V226.236z"/>
	<path d="M108.397,237.438c-1.009,1.756-2.291,3.108-3.845,4.057c-1.554,0.948-3.36,1.423-5.419,1.423
		c-3.451,0-6.151-1.17-8.098-3.512c-1.948-2.341-2.921-5.974-2.921-10.898v-18.981h8.81v19.042c0,2.866,0.388,4.829,1.166,5.888
		c0.777,1.061,1.983,1.59,3.618,1.59c1.413,0,2.624-0.227,3.633-0.682c1.009-0.453,1.836-1.124,2.482-2.013v-23.825h8.84v32.756
		h-7.326L108.397,237.438z"/>
	<path d="M140.548,217.124l-3.239-0.091c-1.312,0-2.392,0.272-3.239,0.817s-1.494,1.313-1.938,2.301v22.13h-8.81v-32.756h8.204
		l0.394,4.844c0.767-1.715,1.761-3.053,2.982-4.012c1.221-0.958,2.628-1.438,4.223-1.438c0.444,0,0.853,0.035,1.226,0.105
		c0.373,0.071,0.751,0.157,1.135,0.258L140.548,217.124z"/>
	<path d="M174.272,236.136c1.534,0,2.755-0.459,3.663-1.378c0.908-0.918,1.362-2.144,1.362-3.678h8.053l0.061,0.182
		c0.081,3.311-1.15,6.08-3.693,8.311c-2.543,2.229-5.691,3.345-9.445,3.345c-4.844,0-8.588-1.549-11.231-4.647
		c-2.644-3.098-3.966-7.058-3.966-11.882v-0.908c0-4.803,1.317-8.765,3.951-11.882c2.634-3.119,6.362-4.678,11.186-4.678
		c3.996,0,7.215,1.15,9.657,3.451c2.442,2.301,3.623,5.328,3.542,9.082l-0.061,0.182h-8.053c0-1.695-0.449-3.104-1.347-4.223
		c-0.898-1.121-2.145-1.681-3.739-1.681c-2.281,0-3.9,0.913-4.859,2.739c-0.959,1.827-1.438,4.163-1.438,7.009v0.908
		c0,2.906,0.479,5.258,1.438,7.054C170.312,235.238,171.951,236.136,174.272,236.136z"/>
	<path d="M211.872,242.281c-0.323-0.746-0.601-1.533-0.833-2.361c-0.232-0.827-0.399-1.675-0.5-2.543
		c-0.908,1.595-2.109,2.917-3.603,3.966c-1.494,1.049-3.27,1.574-5.328,1.574c-3.431,0-6.075-0.883-7.932-2.649
		c-1.857-1.766-2.785-4.172-2.785-7.22c0-3.209,1.236-5.696,3.708-7.462c2.472-1.767,6.08-2.649,10.823-2.649h4.965v-2.604
		c0-1.574-0.414-2.795-1.241-3.663c-0.828-0.867-2.059-1.302-3.693-1.302c-1.433,0-2.538,0.349-3.315,1.044
		c-0.777,0.697-1.166,1.65-1.166,2.861h-8.507l-0.061-0.182c-0.142-2.765,1.064-5.151,3.618-7.16
		c2.553-2.008,5.888-3.012,10.005-3.012c3.936,0,7.119,0.989,9.551,2.967c2.432,1.979,3.648,4.813,3.648,8.507v13.532
		c0,1.534,0.116,2.978,0.348,4.329c0.232,1.353,0.6,2.694,1.105,4.026H211.872z M203.789,236.378c1.534,0,2.906-0.383,4.117-1.15
		c1.211-0.767,2.038-1.654,2.482-2.664v-4.632h-4.965c-1.877,0-3.295,0.465-4.253,1.393c-0.959,0.929-1.438,2.069-1.438,3.421
		c0,1.11,0.358,1.993,1.075,2.649C201.523,236.05,202.518,236.378,203.789,236.378z"/>
	<path d="M234.063,209.525l0.363,4.329c1.049-1.574,2.366-2.79,3.951-3.647c1.584-0.858,3.416-1.287,5.495-1.287
		c2.099,0,3.895,0.465,5.389,1.393c1.493,0.929,2.624,2.331,3.391,4.208c1.009-1.756,2.321-3.128,3.936-4.117
		c1.614-0.988,3.512-1.483,5.691-1.483c3.229,0,5.777,1.146,7.644,3.436c1.867,2.291,2.8,5.788,2.8,10.49v19.436h-8.84v-19.466
		c0-2.623-0.404-4.45-1.211-5.479c-0.808-1.029-2.008-1.544-3.603-1.544c-1.251,0-2.336,0.277-3.254,0.833
		c-0.918,0.555-1.65,1.327-2.195,2.315c0,0.384,0.01,0.712,0.03,0.983c0.02,0.273,0.03,0.551,0.03,0.833v21.524h-8.81v-19.466
		c0-2.563-0.404-4.374-1.211-5.435c-0.808-1.059-2.019-1.589-3.633-1.589c-1.191,0-2.235,0.228-3.133,0.681
		c-0.898,0.455-1.64,1.096-2.225,1.923v23.886h-8.81v-32.756H234.063z"/>
	<path d="M309.05,226.812c0,4.844-1.12,8.739-3.36,11.686c-2.24,2.947-5.369,4.42-9.385,4.42c-1.716,0-3.239-0.317-4.571-0.954
		c-1.332-0.635-2.473-1.568-3.421-2.8v15.712h-8.81v-45.35h7.962l0.515,3.875c0.969-1.433,2.135-2.538,3.496-3.314
		c1.363-0.777,2.952-1.166,4.769-1.166c4.057,0,7.205,1.585,9.445,4.753c2.24,3.169,3.36,7.337,3.36,12.503V226.812z
		 M300.21,226.176c0-3.088-0.515-5.59-1.544-7.508c-1.029-1.917-2.604-2.876-4.723-2.876c-1.332,0-2.468,0.272-3.405,0.817
		c-0.939,0.545-1.681,1.322-2.226,2.331v14.35c0.545,0.929,1.287,1.635,2.226,2.119c0.938,0.484,2.093,0.727,3.466,0.727
		c2.139,0,3.708-0.837,4.708-2.513c0.998-1.675,1.498-3.945,1.498-6.812V226.176z"/>
	<path d="M334.57,237.438c-1.01,1.756-2.291,3.108-3.845,4.057c-1.555,0.948-3.36,1.423-5.419,1.423c-3.451,0-6.15-1.17-8.099-3.512
		c-1.947-2.341-2.921-5.974-2.921-10.898v-18.981h8.81v19.042c0,2.866,0.389,4.829,1.166,5.888c0.776,1.061,1.982,1.59,3.617,1.59
		c1.412,0,2.623-0.227,3.633-0.682c1.009-0.453,1.836-1.124,2.482-2.013v-23.825h8.84v32.756h-7.326L334.57,237.438z"/>
	<path d="M367.205,233.199c0-0.969-0.47-1.801-1.407-2.498c-0.939-0.695-2.68-1.306-5.223-1.831
		c-3.835-0.767-6.746-1.927-8.734-3.481c-1.987-1.554-2.981-3.663-2.981-6.327c0-2.805,1.19-5.196,3.572-7.175
		c2.381-1.978,5.55-2.967,9.506-2.967c4.137,0,7.452,0.989,9.944,2.967c2.493,1.979,3.688,4.44,3.588,7.387l-0.061,0.182h-8.537
		c0-1.312-0.424-2.381-1.271-3.209c-0.848-0.827-2.069-1.241-3.663-1.241c-1.413,0-2.533,0.354-3.36,1.06
		c-0.828,0.707-1.241,1.574-1.241,2.604c0,1.01,0.429,1.832,1.286,2.467c0.858,0.637,2.599,1.207,5.223,1.711
		c4.016,0.808,7.008,1.993,8.977,3.557c1.967,1.564,2.951,3.72,2.951,6.464c0,2.947-1.262,5.358-3.784,7.235
		c-2.523,1.877-5.854,2.815-9.99,2.815c-4.359,0-7.806-1.104-10.339-3.315c-2.532-2.209-3.738-4.727-3.617-7.553l0.061-0.182h8.083
		c0.061,1.756,0.636,3.027,1.726,3.814s2.513,1.181,4.269,1.181c1.635,0,2.881-0.328,3.739-0.983
		C366.776,235.223,367.205,234.33,367.205,233.199z"/>
	<path d="M406.197,242.281h-8.84v-47.227h8.84V242.281z"/>
	<path d="M422.757,201.685h-8.84v-6.63h8.84V201.685z M422.757,242.281h-8.84v-32.756h8.84V242.281z"/>
	<path d="M432.323,242.281v-26.55h-4.874v-6.206h4.874v-3.633c0-3.673,1.06-6.504,3.179-8.492c2.119-1.987,5.096-2.981,8.931-2.981
		c0.746,0,1.509,0.056,2.285,0.167c0.777,0.11,1.63,0.268,2.559,0.469l-0.757,6.569c-0.484-0.08-0.954-0.151-1.407-0.212
		c-0.455-0.061-0.984-0.091-1.59-0.091c-1.434,0-2.518,0.394-3.254,1.181c-0.737,0.787-1.105,1.918-1.105,3.391v3.633h6.297v6.206
		h-6.297v26.55H432.323z"/>
	<path d="M465.109,242.917c-4.885,0-8.699-1.499-11.443-4.495c-2.745-2.998-4.117-6.857-4.117-11.58v-1.211
		c0-4.904,1.332-8.92,3.996-12.049c2.664-3.128,6.327-4.682,10.989-4.662c4.399,0,7.775,1.348,10.127,4.041
		c2.351,2.695,3.526,6.323,3.526,10.884v4.571h-19.526l-0.091,0.182c0.141,2.24,0.822,4.057,2.044,5.449
		c1.221,1.393,3.031,2.089,5.434,2.089c1.978,0,3.658-0.201,5.041-0.605c1.382-0.403,2.81-1.019,4.283-1.847l2.392,5.449
		c-1.313,1.07-3.088,1.968-5.328,2.694S467.753,242.917,465.109,242.917z M464.534,215.731c-1.776,0-3.144,0.61-4.102,1.831
		c-0.959,1.222-1.54,2.842-1.741,4.859l0.061,0.151h10.777v-0.666c0-1.917-0.394-3.426-1.181-4.526
		C467.562,216.281,466.29,215.731,464.534,215.731z"/>
</g>
<rect x="484.431" y="38.656" fill="none" width="71.446" height="210.185"/>
<g enable-background="new    ">
	<path d="M540.956,176.039h-33.261V67.372h33.261V176.039z M540.956,233.22h-33.261v-29.16h33.261V233.22z"/>
</g>
</svg>
