<?xml version="1.0" encoding="iso-8859-1"?>
<!-- Generator: Adobe Illustrator 19.1.0, SVG Export Plug-In . SVG Version: 6.00 Build 0)  -->
<!DOCTYPE svg PUBLIC "-//W3C//DTD SVG 1.1//EN" "http://www.w3.org/Graphics/SVG/1.1/DTD/svg11.dtd">
<svg version="1.1" xmlns="http://www.w3.org/2000/svg" xmlns:xlink="http://www.w3.org/1999/xlink" x="0px" y="0px"
	 viewBox="0 0 48 48" style="enable-background:new 0 0 48 48;" xml:space="preserve">
<g id="&#x56FE;&#x5C42;_1">
	<path style="fill:#FFA726;" d="M48,43c0,2.761-2.239,5-5,5H5c-2.761,0-5-2.239-5-5V5c0-2.761,2.239-5,5-5h38c2.761,0,5,2.239,5,5
		V43z"/>
</g>
<g id="&#x56FE;&#x5C42;_5">
	<path style="fill:#FFFFFF;" d="M18.961,32.22c-2.499,0-4.904,0-7.37,0c0-0.253,0-0.479,0-0.704c0-5.536,0.022-11.072-0.016-16.608
		c-0.009-1.304-0.118-2.627-0.373-3.903c-0.237-1.191-0.73-2.33-1.123-3.533c0.142-0.016,0.288-0.046,0.433-0.046
		c2.295-0.003,4.591,0.009,6.886-0.013c0.411-0.004,0.579,0.132,0.666,0.516c0.303,1.338,0.631,2.671,0.959,4.048
		c0.52-0.572,1.019-1.187,1.585-1.734c3.088-2.985,6.694-4.136,10.889-2.889c2.051,0.609,3.352,2.028,4.043,4.071
		c0.444,1.312,0.631,2.634,0.63,4.006c-0.006,8.314-0.003,16.628-0.003,24.942c0,0.246,0,0.492,0,0.773c-2.472,0-4.89,0-7.37,0
		c0-0.276,0-0.523,0-0.77c0-7.716,0.001-15.432-0.003-23.148c0-0.539,0.004-1.084-0.067-1.616c-0.327-2.463-1.735-3.631-4.261-3.211
		c-1.592,0.265-2.853,1.176-3.968,2.298c-0.323,0.325-0.638,0.659-0.932,1.009c-0.374,0.445-0.627,0.907-0.623,1.553
		c0.031,4.745,0.017,9.49,0.017,14.236C18.961,31.724,18.961,31.953,18.961,32.22z"/>
	<g>
	</g>
	<g>
	</g>
	<g>
	</g>
	<g>
	</g>
	<g>
	</g>
	<g>
	</g>
</g>
</svg>
