<svg xmlns="http://www.w3.org/2000/svg" width="785.714" height="1000" viewBox="0 0 785.714 1000"><path d="M785.714 678.034c-14.508 46.5-37.387 93-68.635 139.5-47.99 72.912-95.79 109.368-143.407 109.368-18.227 0-44.268-5.952-78.12-17.856-31.99-11.904-60.077-17.856-84.257-17.856-22.692 0-49.104 6.14-79.236 18.414-30.132 12.648-54.684 18.973-73.656 18.973-56.544 0-112.53-48.174-167.958-144.522C35.762 686.962 8.42 593.405 8.42 503.38c0-84.815 21.018-154.38 63.054-208.692 41.664-53.568 94.488-80.352 158.472-80.352 26.784 0 59.706 5.58 98.766 16.74 38.688 11.16 64.356 16.74 77.004 16.74 16.74 0 43.338-6.324 79.793-18.972 37.944-12.648 70.122-18.972 96.534-18.972 44.268 0 83.885 12.09 118.854 36.27 19.344 13.392 38.688 31.992 58.03 55.8-29.386 24.924-50.59 46.873-63.61 65.844-24.18 34.968-36.27 73.47-36.27 115.506 0 46.128 12.834 87.606 38.502 124.434 25.668 36.828 55.055 60.264 88.164 70.308zM575.906 23.5c0 22.692-5.395 47.988-16.182 75.888-11.16 27.9-28.46 53.568-51.895 77.004-20.09 20.088-40.177 33.48-60.265 40.176-13.764 4.092-33.107 7.254-58.032 9.486 1.116-55.428 15.624-103.23 43.524-143.406 27.527-39.804 74.027-67.332 139.5-82.584.37 1.116.836 3.162 1.395 6.138.56 2.976 1.023 5.022 1.395 6.138 0 1.488.094 3.348.28 5.58s.28 4.092.28 5.58z"/></svg>