<svg xmlns="http://www.w3.org/2000/svg" height="1000" width="857.143"><path d="M369.954 229.402q-6.138.558-8.65 5.86t-4.742 5.3q-2.79.558-2.79-2.79 0-6.696 10.602-8.37h5.58zm48.546 7.812q-2.232.558-6.417-3.627t-9.765-2.51q13.392-6.14 17.856 1.115 1.674 3.348-1.674 5.022zM222.642 475.48q-2.232-.558-3.348 1.674t-2.51 6.975-3.07 7.532-5.58 7.254q-3.906 5.58-.558 6.696 2.232.558 6.975-3.906t6.976-10.044q.558-1.674 1.116-3.906t1.116-3.348.837-2.51.28-2.233v-1.674l-.56-1.394-1.673-1.116zm477.09 200.322q0-10.044-30.69-23.436 2.232-8.37 4.185-15.345t2.79-14.507 1.674-11.997.28-12.555-.558-10.88-1.953-12.276-2.233-11.44-2.79-13.95-3.07-14.786q-5.58-26.784-26.225-57.474t-40.176-41.85q13.392 11.16 31.806 46.314 48.546 90.396 30.132 155.124-6.138 22.32-27.9 23.436-17.298 2.232-21.483-10.323t-4.463-46.593-6.417-59.706q-5.022-21.762-10.88-38.502t-10.882-25.39-8.65-13.67-7.253-8.37-4.185-3.906q-7.812-34.596-17.298-57.474t-16.46-31.248-13.114-18.414-8.37-22.32q-2.232-11.718 3.348-29.853t2.51-27.622-24.83-13.95q-8.37-1.674-24.83-10.044t-19.81-8.928q-4.464-.558-6.138-14.508t4.464-28.458 20.088-15.066q20.646-1.674 28.458 16.74t2.232 32.364q-6.138 10.602-1.116 14.787t16.74.28q7.254-2.233 7.254-20.09V199.27q-2.79-16.74-7.533-27.9t-11.718-17.02-13.113-8.37-15.066-4.184q-59.706 4.464-49.662 74.772 0 8.37-.558 8.37-5.022-5.022-16.46-5.86t-18.415.28-8.65-2.79q.56-31.806-8.927-50.22t-25.11-18.972q-15.066-.558-23.157 15.345t-9.208 33.202q-.558 8.37 1.953 20.646t7.254 20.925 8.648 7.533q5.58-1.674 8.928-7.812 2.232-5.022-3.906-4.464-3.906 0-8.65-8.09t-5.3-18.694q-.558-12.276 5.022-20.646t18.972-7.812q9.486 0 15.066 11.718t5.3 21.762-.836 12.276q-12.276 8.37-17.298 16.182-4.464 6.696-15.345 13.113t-11.438 6.974q-7.254 7.812-8.65 15.066t4.186 10.044q7.812 4.464 13.95 10.88t8.928 10.603 10.323 7.254 19.808 3.628q26.226 1.116 56.916-8.37 1.116-.558 12.834-3.906t19.25-5.86 16.462-7.253 11.718-9.766q5.022-7.812 11.16-4.464 2.79 1.674 3.627 4.743t-1.674 6.696-9.206 5.3q-11.16 3.348-31.527 11.997t-25.39 10.88q-24.55 10.603-39.06 12.835-13.95 2.79-44.08-1.116-5.58-1.116-5.023 1.116t9.486 10.602q13.95 12.834 37.386 12.276 9.486-.558 20.088-3.906t20.088-7.812 18.693-9.765 16.74-9.486 13.67-6.695 9.766-1.395 4.744 6.138q0 1.116-.558 2.51t-2.232 2.79-3.348 2.512-4.743 2.79-5.022 2.51-5.58 2.79-5.3 2.512q-15.624 7.812-37.665 24.552t-37.107 23.994-27.342.558q-11.718-6.138-35.154-40.734-12.276-17.298-13.95-12.276-.558 1.674-.558 5.58 0 13.95-8.37 31.527t-16.46 30.97-11.72 32.363 6.418 35.154q-12.834 3.348-34.875 50.22t-26.505 78.678q-1.116 10.044-.837 38.502t-3.07 32.922q-4.463 13.392-16.18 1.674-17.857-17.298-20.09-52.452-1.115-15.624 2.233-31.248 2.232-10.602-.558-10.044l-2.232 2.79q-20.088 36.27 5.58 92.628 2.79 6.696 13.95 15.624t13.392 11.16q11.16 12.834 58.032 50.5t51.894 42.686q8.928 8.37 9.765 21.204t-7.81 23.994-25.39 12.834q4.464 8.37 16.182 24.83t15.624 30.133 3.906 39.34q25.668-13.393 3.906-51.337-2.232-4.464-5.86-8.928t-5.3-6.696-1.116-3.348q1.674-2.79 7.254-5.3t11.16 1.394q25.668 29.016 92.628 20.088 74.214-8.37 98.766-48.546 12.834-21.204 18.972-16.74 6.696 3.348 5.58 29.016-.558 13.95-12.834 51.336-5.022 12.834-3.348 20.925t13.392 8.648q1.674-10.602 8.09-42.966t7.534-50.22q1.116-11.718-3.627-41.013t-4.186-54.127 12.834-39.34q8.37-10.043 28.458-10.043.558-20.646 19.25-29.574t40.456-5.86 33.48 12.556zM349.308 214.336q1.674-9.486-1.395-16.74t-6.417-8.37q-5.022-1.116-5.022 3.906 1.116 2.79 2.79 3.348 5.58 0 3.906 8.37-1.674 11.16 4.464 11.16 1.674 0 1.674-1.674zM583.11 324.262q-1.116-4.464-3.627-6.417t-7.254-2.79-8.092-3.07q-2.79-1.673-5.3-4.463t-3.907-4.464-3.068-3.627-2.232-2.23-2.232.836q-7.812 8.928 3.906 24.273t21.762 17.576q5.022.558 8.09-4.464t1.954-11.16zm-99.324-118.854q0-6.138-2.79-10.88t-6.138-6.976-5.022-1.674q-7.812.558-3.906 3.906l2.232 1.116q7.812 2.232 10.044 17.298 0 1.674 4.464-1.116zm30.132-130.014q0-1.116-1.395-2.79t-5.022-3.906-5.3-3.348q-8.37-8.37-13.392-8.37-5.022.558-6.417 4.185t-.557 7.254-.28 6.974q-.557 2.232-3.347 5.86t-3.348 5.02 1.674 4.744q2.232 1.674 4.464 0t6.138-5.022 8.37-5.022q.558-.558 5.022-.558t8.37-1.116 5.022-3.906zm315.27 748.278q11.16 6.696 17.298 13.67t6.696 13.393-1.395 12.555-8.65 12.276-13.112 10.88-16.74 10.324-17.577 9.207-17.856 8.65-15.066 7.253q-21.204 10.602-47.71 31.248T672.95 988.84q-9.486 8.928-37.944 10.88t-49.662-8.09q-10.044-5.022-16.46-13.113t-9.208-14.23-12.276-10.88-26.226-5.3q-24.552-.56-72.54-.56-10.602 0-31.806.838t-32.364 1.395q-24.552.558-44.36 8.37t-29.854 16.74-24.273 15.903-29.853 6.417q-16.182-.558-61.938-17.298t-81.468-23.994q-10.602-2.232-28.458-5.3t-27.9-5.023-22.04-5.3-18.694-8.092-9.486-10.88q-5.58-12.835 3.906-37.108t10.044-30.41q.558-8.93-2.232-22.32t-5.58-23.716-2.51-20.368 5.858-15.066q7.812-6.696 31.806-7.812t33.48-6.696q16.74-10.044 23.436-19.53t6.696-28.458q11.718 40.734-17.856 59.148-17.856 11.16-46.314 8.37-18.972-1.674-23.994 5.58-7.254 8.37 2.79 31.806 1.116 3.348 4.464 10.044t4.743 10.044 2.51 9.486.56 12.276q0 8.37-9.487 27.342t-7.812 26.784q1.674 9.486 20.646 14.508 11.16 3.348 47.15 10.323t55.522 11.44q13.392 3.348 41.292 12.276T231.29 972.1t30.97 2.232q23.994-3.348 35.99-15.624t12.835-26.784-4.185-32.643-10.602-29.015-11.16-20.367q-67.518-106.02-94.302-135.036-37.944-41.292-63.054-22.32-6.138 5.022-8.37-8.37-1.674-8.928-1.116-21.204.558-16.182 5.58-29.016t13.392-26.226 12.276-23.436q4.464-11.718 14.787-40.176t16.462-43.524 16.74-34.038 21.762-30.132q61.38-79.794 69.192-108.81-6.696-62.496-8.928-172.98-1.116-50.22 13.392-84.537t59.148-58.31Q373.86.062 410.13.062q29.574-.557 59.148 7.534t49.662 23.157q31.806 23.436 51.057 67.797t16.46 82.306q-2.79 53.01 16.74 119.412 18.973 63.054 74.215 121.644 30.69 32.922 55.52 90.954t33.202 106.578q4.464 27.342 2.79 47.15t-6.696 30.97-11.16 12.276q-5.58 1.116-13.113 10.602t-15.066 19.81-22.6 18.692-34.038 7.812q-10.044-.558-17.577-2.79t-12.555-7.533-7.533-8.65-6.417-11.438-5.022-10.88q-12.276-20.647-22.878-16.74t-15.624 27.34 3.906 54.127q11.16 39.06.558 108.81-5.58 36.27 10.044 56.08t40.734 18.413 47.43-19.81q32.922-27.34 49.94-37.106t57.754-23.716q29.574-10.044 42.966-20.367t10.323-19.25-13.95-15.904-28.736-13.113q-18.414-6.138-27.62-26.784t-8.37-40.455 8.648-26.504q.558 17.298 4.464 31.527t8.09 22.6 11.44 15.902 11.718 10.602 11.997 7.254 9.208 5.302z"/></svg>