<?xml version="1.0" encoding="utf-8"?>
<!-- Generator: Adobe Illustrator 17.0.0, SVG Export Plug-In . SVG Version: 6.00 Build 0)  -->
<!DOCTYPE svg PUBLIC "-//W3C//DTD SVG 1.1//EN" "http://www.w3.org/Graphics/SVG/1.1/DTD/svg11.dtd">
<svg version="1.1" id="图层_1" xmlns="http://www.w3.org/2000/svg" xmlns:xlink="http://www.w3.org/1999/xlink" x="0px" y="0px"
	 width="24px" height="24px" viewBox="0 0 24 24" enable-background="new 0 0 24 24" xml:space="preserve">
<path fill="none" d="M0,0h24v24H0V0z"/>
<path fill="#8173BC" d="M23,11.01L18,11c-0.55,0-1,0.45-1,1v9c0,0.55,0.45,1,1,1h5c0.55,0,1-0.45,1-1v-9
	C24,11.45,23.55,11.01,23,11.01z M23,20h-5v-7h5V20z M20,2H2C0.89,2,0,2.89,0,4v12c0,1.1,0.89,2,2,2h7v2H7v2h8v-2h-2v-2h2v-2H2V4h18
	v5h2V4C22,2.89,21.1,2,20,2z M11.97,9L11,6l-0.97,3H7l2.47,1.76l-0.94,2.91l2.47-1.8l2.47,1.8l-0.94-2.91L15,9H11.97z"/>
</svg>
